<?xml version="1.0" encoding="utf-8"?>
<svg viewBox="199.963 350.699 81.197 61.478" xmlns="http://www.w3.org/2000/svg" xmlns:bx="https://boxy-svg.com">
  <path d="M 279.019 350.703 L 279.019 363.743 L 279.019 376.787 L 279.019 389.828 L 279.019 402.872 L 272.398 405.184 L 265.776 407.501 L 259.155 409.813 L 252.533 412.13 L 252.533 399.086 L 252.533 386.045 L 252.533 373.001 L 252.533 359.961 L 259.155 357.644 L 265.776 355.332 L 272.398 353.015 L 279.019 350.703 Z" style="fill: rgb(245, 241, 226);"/>
  <path d="M 252.644 412.177 L 252.644 399.137 L 252.644 386.093 L 252.644 373.052 L 252.644 360.008 L 246.023 357.696 L 239.401 355.379 L 232.78 353.067 L 226.158 350.75 L 226.158 363.794 L 226.158 376.835 L 226.158 389.879 L 226.158 402.919 L 232.78 405.236 L 239.401 407.548 L 246.023 409.865 L 252.644 412.177 Z" style="fill: rgb(255, 253, 244);"/>
  <path d="M 226.369 350.699 L 226.369 363.739 L 226.369 376.783 L 226.369 389.824 L 226.369 402.868 L 219.768 405.18 L 213.166 407.497 L 206.565 409.809 L 199.963 412.126 L 199.963 399.082 L 199.963 386.041 L 199.963 372.997 L 199.963 359.957 L 206.565 357.64 L 213.166 355.328 L 219.768 353.011 L 226.369 350.699 Z" style="fill: rgb(245, 241, 226); pointer-events: none;"/>
  <g transform="matrix(2.367123, 0, 0, 2.230682, 119.722427, 342.015747)" style="">
    <polyline style="fill: rgb(153, 26, 26);" points="45.051 18.068 49.243 21.096 53.303 16.043 56.103 18.718 56.111 22.335 53.411 19.745 49.193 24.554 45.057 21.316"/>
  </g>
  <polyline style="fill: rgb(135, 25, 25);" points="226.399 382.339 219.603 381.014 204.21 399.99 210.834 404.265 221.544 388.86 226.422 389.566"/>
  <polyline style="fill: rgb(135, 25, 25);" points="272.559 369.512 264.577 368.431 252.512 390.291 257.509 392.895 267.214 376.754 272.582 377.554" transform="matrix(-1, 0.00014, -0.00014, -1, 525.147278, 761.289246)"/>
  <path d="M 353.868 450.164 H 357.213 V 456.58 H 363.904 V 459.788 H 357.213 V 466.203 H 353.868 V 459.788 H 347.176 V 456.58 H 353.868 Z" style="fill: rgb(20, 27, 83);" transform="matrix(0.881754, -0.47171, 0.475101, 0.87994, -261.207245, 133.186844)" bx:shape="cross 347.176 450.164 16.728 16.039 3.208 3.345 0.5 1@6e168beb"/>
</svg>