<?xml version="1.0" encoding="utf-8"?>
<svg viewBox="135.469 157.313 103.031 62.844" xmlns="http://www.w3.org/2000/svg">
  <defs>
    <linearGradient gradientUnits="userSpaceOnUse" x1="186.984" y1="157.313" x2="186.984" y2="193.172" id="gradient-1">
      <stop offset="0" style="stop-color: rgb(255, 255, 255);"/>
      <stop offset="1" style="stop-color: rgb(216, 231, 255);"/>
    </linearGradient>
    <linearGradient gradientUnits="userSpaceOnUse" x1="182.102" y1="175.984" x2="182.102" y2="211.563" id="gradient-0">
      <stop offset="0" style="stop-color: rgba(255, 217, 0, 1)"/>
      <stop offset="1" style="stop-color: rgb(255, 245, 187);"/>
    </linearGradient>
  </defs>
  <path d="M 136.3084528076172 179.13403735351562 Q 136.3084528076172 177.14298579101563 136.37309733886718 175.17779204101564 Q 136.43774187011718 173.21259829101564 136.43774187011718 171.19568891601563 Q 136.43774187011718 170.03208735351564 136.3213817138672 168.86848579101562 Q 136.2050215576172 167.70488422851562 136.2050215576172 166.54128266601563 Q 136.2050215576172 166.17927329101562 136.4248129638672 165.92069516601563 Q 136.64460437011718 165.66211704101562 137.0066137451172 165.66211704101562 Q 137.6272012451172 165.66211704101562 137.9374949951172 165.92069516601563 Q 138.2477887451172 166.17927329101562 138.37707780761718 166.56714047851563 Q 138.50636687011718 166.95500766601563 138.50636687011718 167.4463061035156 Q 138.50636687011718 167.93760454101562 138.50636687011718 168.40304516601563 Q 138.50636687011718 168.50647641601563 138.5192957763672 168.92020141601563 Q 138.5322246826172 169.33392641601563 138.5580824951172 169.81229594726562 Q 138.58394030761718 170.29066547851562 138.5968692138672 170.70439047851562 Q 138.60979812011718 171.11811547851562 138.60979812011718 171.22154672851562 L 138.60979812011718 172.0748545410156 Q 138.60979812011718 173.75561235351563 138.5580824951172 175.41051235351563 Q 138.50636687011718 177.06541235351563 138.50636687011718 178.77202797851564 L 138.50636687011718 179.85805610351562 Q 138.50636687011718 179.98734516601561 138.54515358886718 180.20713657226563 Q 138.58394030761718 180.42692797851564 138.60979812011718 180.42692797851564 L 138.81666062011718 180.42692797851564 L 144.9449621826172 177.99629360351562 Q 145.1518246826172 177.81528891601562 145.30697155761717 177.80236000976564 Q 145.4621184326172 177.78943110351562 145.6689809326172 177.78943110351562 Q 145.79826999511718 177.78943110351562 146.00513249511718 177.80236000976564 Q 146.21199499511718 177.81528891601562 146.4059285888672 177.8799334472656 Q 146.5998621826172 177.9445779785156 146.7420801513672 178.06093813476562 Q 146.8842981201172 178.17729829101563 146.8842981201172 178.41001860351562 Q 146.8842981201172 179.00474829101563 146.23785280761717 179.44433110351562 Q 145.41040280761717 179.88391391601562 144.5312371826172 180.2588521972656 Q 143.65207155761718 180.63379047851564 142.7470481201172 180.86651079101563 L 142.61775905761718 180.96994204101563 Q 141.37658405761718 181.30609360351562 140.30348483886718 181.9525389160156 Q 139.23038562011718 182.59898422851563 138.06678405761718 183.14199829101562 L 137.8340637451172 183.14199829101562 Q 137.13590280761719 183.14199829101562 136.7997512451172 182.6765576660156 Q 136.4635996826172 182.21111704101563 136.3601684326172 181.57760063476562 Q 136.2567371826172 180.94408422851564 136.2825949951172 180.2588521972656 Q 136.3084528076172 179.57362016601562 136.3084528076172 179.13403735351562 Z M 158.44078615722657 175.79837954101563 Q 158.38907053222655 176.26382016601562 158.32442600097656 176.52239829101563 Q 158.25978146972656 176.78097641601562 158.10463459472658 176.98783891601562 Q 157.94948771972656 177.19470141601562 157.66505178222656 177.41449282226563 Q 157.38061584472655 177.63428422851564 156.88931740722657 178.03508032226563 Q 156.39801896972656 178.43587641601562 155.67400021972657 179.08232172851564 Q 154.94998146972657 179.72876704101563 153.91566896972657 180.76307954101563 Q 153.50194396972657 181.15094672851563 153.06236115722658 181.56467172851563 Q 152.62277834472656 181.97839672851563 152.14440881347656 182.30161938476562 Q 151.66603928222656 182.62484204101563 151.14888303222656 182.83170454101563 Q 150.63172678222656 183.03856704101563 150.06285490722655 183.03856704101563 Q 148.95096896972657 183.03856704101563 148.43381271972657 182.28869047851563 Q 147.91665646972658 181.5388139160156 147.91665646972658 180.55621704101563 Q 147.91665646972658 179.90977172851564 147.95544318847655 179.47018891601562 Q 147.99422990722655 179.03060610351562 148.14937678222657 178.33244516601562 Q 147.86494084472656 178.07386704101563 147.65807834472656 177.8799334472656 Q 147.45121584472656 177.68599985351563 147.45121584472656 177.34984829101563 Q 147.45121584472656 177.03955454101563 147.59343381347657 176.93612329101563 Q 147.73565178222657 176.83269204101563 147.92958537597656 176.79390532226563 Q 148.12351896972658 176.75511860351563 148.30452365722655 176.7034029785156 Q 148.48552834472656 176.65168735351563 148.56310178222657 176.4965404785156 Q 148.61481740722655 176.34139360351563 148.75703537597656 175.92766860351563 Q 148.89925334472656 175.51394360351563 149.05440021972657 175.06143188476562 Q 149.20954709472656 174.60892016601562 149.35176506347656 174.20812407226563 Q 149.49398303222657 173.80732797851562 149.54569865722655 173.65218110351563 Q 149.72670334472656 173.21259829101564 149.94649475097657 172.76008657226564 Q 150.16628615722655 172.30757485351563 150.46365100097657 171.94556547851562 Q 150.76101584472656 171.58355610351563 151.16181193847657 171.3508357910156 Q 151.56260803222656 171.11811547851562 152.10562209472656 171.11811547851562 Q 152.41591584472656 171.11811547851562 152.86842756347656 171.40255141601563 Q 153.32093928222656 171.68698735351563 153.73466428222656 172.08778344726562 Q 154.14838928222656 172.4885795410156 154.43282521972657 172.92816235351563 Q 154.71726115722657 173.36774516601562 154.71726115722657 173.67803891601562 Q 154.71726115722657 174.06590610351563 154.53625646972657 174.3891287597656 Q 154.35525178222656 174.71235141601562 154.08374475097656 174.98385844726562 Q 153.81223771972657 175.2553654785156 153.50194396972657 175.48808579101564 Q 153.19165021972657 175.72080610351563 152.93307209472655 175.92766860351563 Q 152.90721428222656 175.92766860351563 152.82964084472655 175.9793842285156 Q 152.75206740722658 176.03109985351563 152.70035178222656 176.05695766601562 Q 152.67449396972657 176.0828154785156 152.58399162597655 176.17331782226563 Q 152.49348928222656 176.26382016601562 152.39005803222656 176.36725141601562 Q 152.28662678222656 176.47068266601562 152.19612443847657 176.57411391601562 Q 152.10562209472656 176.67754516601562 152.07976428222656 176.7034029785156 Q 152.00219084472656 176.78097641601562 151.78239943847657 176.94905219726562 Q 151.56260803222656 177.1171279785156 151.30402990722655 177.31106157226563 Q 151.04545178222656 177.50499516601562 150.82566037597655 177.67307094726561 Q 150.60586896972657 177.84114672851564 150.52829553222657 177.89286235351562 L 150.42486428222657 178.09972485351562 Q 150.37314865722655 178.20315610351562 150.33436193847658 178.55223657226563 Q 150.29557521972657 178.90131704101563 150.24385959472656 179.34089985351562 Q 150.19214396972657 179.78048266601562 150.15335725097657 180.23299438476562 Q 150.11457053222657 180.68550610351562 150.11457053222657 180.96994204101563 Q 150.11457053222657 180.99579985351562 150.14042834472656 181.0216576660156 Q 150.19214396972657 181.07337329101563 150.21800178222657 181.07337329101563 Q 150.42486428222657 181.07337329101563 150.60586896972657 180.89236860351562 Q 150.78687365722655 180.7113639160156 150.99373615722655 180.63379047851564 L 155.13098615722657 176.8068342285156 L 156.19115646972656 175.17779204101564 Q 156.32044553222656 174.99678735351563 156.69538381347655 174.77699594726562 Q 157.07032209472658 174.55720454101564 157.45818928222656 174.54427563476563 Q 157.84605646972656 174.53134672851562 158.14342131347655 174.78992485351563 Q 158.44078615722657 175.04850297851561 158.44078615722657 175.79837954101563 Z M 152.75206740722658 173.78147016601562 Q 152.88135646972657 173.67803891601562 152.85549865722658 173.47117641601562 Q 152.82964084472655 173.26431391601562 152.71328068847657 173.1091670410156 Q 152.59692053222656 172.95402016601562 152.41591584472656 172.91523344726562 Q 152.23491115722658 172.87644672851562 152.07976428222656 173.1091670410156 Q 152.00219084472656 173.21259829101564 151.80825725097657 173.52289204101564 Q 151.61432365722655 173.83318579101564 151.42039006347656 174.15640844726562 Q 151.22645646972657 174.47963110351563 151.09716740722655 174.71235141601562 Q 150.96787834472656 174.94507172851561 151.04545178222656 174.89335610351563 Z M 161.61934653320313 175.59151704101563 Q 161.25733715820311 175.59151704101563 160.97290122070314 175.7725217285156 Q 160.68846528320313 175.95352641601562 160.30059809570312 175.95352641601562 Q 160.24888247070314 175.95352641601562 160.02909106445313 175.94059750976564 Q 159.80929965820312 175.92766860351563 159.75758403320313 175.92766860351563 Q 159.65415278320313 175.79837954101563 159.52486372070314 175.72080610351563 Q 159.39557465820312 175.64323266601562 159.26628559570312 175.55273032226563 Q 159.13699653320313 175.4622279785156 159.0464941894531 175.33293891601562 Q 158.95599184570312 175.20364985351563 158.95599184570312 174.97092954101564 Q 158.95599184570312 174.58306235351563 159.26628559570312 174.33741313476563 Q 159.57657934570312 174.09176391601562 159.99030434570312 173.91075922851562 Q 160.40402934570312 173.72975454101564 160.83068325195313 173.57460766601562 Q 161.25733715820311 173.41946079101564 161.51591528320313 173.21259829101564 L 161.51591528320313 172.0748545410156 Q 161.51591528320313 170.16137641601563 161.33491059570312 168.23496938476563 Q 161.15390590820311 166.30856235351564 161.15390590820311 164.42094204101562 Q 161.15390590820311 163.90378579101562 161.41248403320313 163.74863891601564 Q 161.6710621582031 163.59349204101562 162.11064497070313 163.59349204101562 Q 162.62780122070313 163.59349204101562 162.87345043945314 163.89085688476564 Q 163.1190996582031 164.18822172851563 163.2225309082031 164.6148756347656 Q 163.3259621582031 165.04152954101562 163.3259621582031 165.51989907226562 Q 163.3259621582031 165.9982686035156 163.35181997070313 166.33442016601563 Q 163.35181997070313 166.67057172851563 163.40353559570312 167.52387954101562 Q 163.45525122070313 168.37718735351564 163.50696684570312 169.33392641601563 Q 163.55868247070313 170.29066547851562 163.61039809570312 171.1439732910156 Q 163.66211372070313 171.99728110351563 163.68797153320313 172.33343266601563 Q 163.79140278320313 172.30757485351563 164.0887676269531 172.19121469726562 Q 164.38613247070313 172.0748545410156 164.72228403320312 171.95849438476563 Q 165.05843559570312 171.84213422851562 165.35580043945313 171.73870297851562 Q 165.65316528320312 171.63527172851562 165.78245434570312 171.58355610351563 Q 166.45475747070313 171.29912016601563 167.17877622070313 170.95003969726562 Q 167.90279497070313 170.60095922851562 168.65267153320312 170.60095922851562 Q 169.16982778320312 170.60095922851562 169.4413348144531 170.95003969726562 Q 169.7128418457031 171.29912016601563 169.7128418457031 171.7645607910156 Q 169.7128418457031 172.10071235351563 169.45426372070312 172.25585922851562 Q 169.19568559570314 172.41100610351563 168.91124965820313 172.54029516601562 L 164.20512778320312 174.29862641601562 Q 164.12755434570312 174.35034204101564 164.0499809082031 174.3891287597656 Q 163.97240747070313 174.42791547851562 163.89483403320313 174.50548891601562 L 163.89483403320313 175.33293891601562 Q 163.89483403320313 176.23796235351563 163.93362075195313 177.20763032226563 Q 163.97240747070313 178.17729829101563 164.10169653320312 179.08232172851564 Q 164.23098559570312 179.85805610351562 164.38613247070313 180.6079326660156 Q 164.54127934570312 181.35780922851563 164.54127934570312 182.13354360351562 Q 164.54127934570312 182.3662639160156 164.38613247070313 182.75413110351562 Q 164.23098559570312 183.14199829101562 163.89483403320313 183.14199829101562 Q 163.19667309570312 183.14199829101562 162.75709028320313 182.72827329101563 Q 162.31750747070313 182.31454829101563 162.26579184570312 181.61638735351562 Q 162.13650278320313 180.27178110351562 161.99428481445312 178.66859672851564 Q 161.85206684570312 177.06541235351563 161.72277778320313 175.59151704101563 Z M 174.4429086669922 182.1594014160156 Q 174.4429086669922 182.03011235351562 174.45583757324218 181.92668110351562 Q 174.4687664794922 181.82324985351562 174.5721977294922 181.71981860351562 Q 174.8824914794922 181.3319514160156 175.2703586669922 180.90529750976563 Q 175.6582258544922 180.47864360351562 176.0202352294922 180.0519896972656 Q 176.3822446044922 179.62533579101563 176.6925383544922 179.15989516601562 Q 177.0028321044922 178.69445454101563 177.2096946044922 178.22901391601562 L 177.2096946044922 178.07386704101563 L 173.8223211669922 178.77202797851564 L 173.4344539794922 178.77202797851564 Q 173.07244460449218 178.77202797851564 172.5423594482422 178.72031235351562 Q 172.01227429199218 178.66859672851564 171.5080469482422 178.5005209472656 Q 171.00381960449218 178.33244516601562 170.65473913574218 178.02215141601562 Q 170.3056586669922 177.71185766601562 170.3056586669922 177.19470141601562 Q 170.3315164794922 176.5999717285156 170.9262461669922 175.8759529785156 Q 171.52097585449218 175.15193422851561 172.32256804199218 174.45377329101564 Q 173.1241602294922 173.75561235351563 173.93868132324218 173.16088266601562 Q 174.7532024169922 172.56615297851562 175.24450085449217 172.23000141601563 Q 175.7875149169922 171.91970766601563 176.5373914794922 171.72577407226564 Q 177.28726804199218 171.53184047851562 177.90785554199218 171.53184047851562 Q 178.42501179199218 171.53184047851562 178.81287897949218 171.72577407226564 Q 179.2007461669922 171.91970766601563 179.2007461669922 172.4885795410156 Q 179.2007461669922 172.72129985351563 179.1619594482422 172.92816235351563 Q 179.12317272949218 173.13502485351563 178.83873679199218 173.21259829101564 Q 178.01128679199218 173.13502485351563 177.28726804199218 173.32895844726562 Q 176.56324929199218 173.52289204101564 175.9168039794922 173.91075922851562 Q 175.2703586669922 174.29862641601562 174.70148679199218 174.82871157226563 Q 174.1326149169922 175.3587967285156 173.58960085449218 175.92766860351563 Q 173.4344539794922 176.10867329101563 173.2017336669922 176.43189594726562 Q 172.96901335449218 176.75511860351563 172.96901335449218 176.8068342285156 L 172.96901335449218 176.83269204101563 Q 173.6413164794922 176.83269204101563 174.3006906982422 176.7034029785156 Q 174.9600649169922 176.57411391601562 175.6194391357422 176.43189594726562 Q 176.2788133544922 176.2896779785156 176.93818757324217 176.16038891601562 Q 177.59756179199218 176.03109985351563 178.29572272949218 176.03109985351563 Q 178.5543008544922 176.03109985351563 178.8645946044922 176.06988657226563 Q 179.1748883544922 176.10867329101563 179.4463953857422 176.23796235351563 Q 179.7179024169922 176.36725141601562 179.88597819824219 176.58704282226563 Q 180.05405397949218 176.8068342285156 180.05405397949218 177.14298579101563 Q 180.05405397949218 177.63428422851564 179.80840476074218 178.0867959472656 Q 179.56275554199217 178.53930766601562 179.08438601074218 179.17282407226563 Q 178.60601647949218 179.80634047851564 177.86906882324217 180.7113639160156 Q 177.1321211669922 181.61638735351562 176.1236664794922 183.03856704101563 Q 176.0719508544922 183.11614047851563 175.87801726074218 183.14199829101562 Q 175.6840836669922 183.16785610351562 175.5547946044922 183.16785610351562 Q 175.1927852294922 183.16785610351562 174.8178469482422 182.85756235351562 Q 174.4429086669922 182.54726860351562 174.4429086669922 182.1594014160156 Z M 192.0743255371094 182.3662639160156 Q 192.02260991210937 179.49604672851564 191.93210756835938 176.63875844726562 Q 191.84160522460937 173.78147016601562 191.84160522460937 170.91125297851562 Q 191.84160522460937 170.70439047851562 191.84160522460937 170.17430532226564 Q 191.84160522460937 169.64422016601563 191.85453413085938 169.04949047851562 Q 191.8674630371094 168.45476079101562 191.8674630371094 167.93760454101562 Q 191.8674630371094 167.42044829101562 191.8674630371094 167.21358579101562 Q 191.9708942871094 166.79986079101562 192.1777567871094 166.55421157226561 Q 192.3846192871094 166.30856235351564 192.82420209960938 166.30856235351564 Q 193.26378491210937 166.30856235351564 193.59993647460936 166.58006938476564 Q 193.93608803710939 166.85157641601563 194.14295053710939 167.21358579101562 L 197.86647553710938 174.40205766601562 Q 197.89233334960937 174.45377329101564 198.0474802246094 174.71235141601562 Q 198.20262709960937 174.97092954101564 198.28020053710938 175.07436079101564 Q 198.30605834960937 175.10021860351563 198.3577739746094 175.12607641601562 Q 198.40948959960937 175.15193422851561 198.40948959960937 175.17779204101564 L 198.51292084960937 174.94507172851561 L 200.71083491210936 167.21358579101562 Q 200.94355522460938 166.85157641601563 201.05991538085937 166.39906469726563 Q 201.17627553710938 165.94655297851563 201.31849350585938 165.50697016601563 Q 201.46071147460938 165.0673873535156 201.68050288085936 164.67952016601564 Q 201.90029428710938 164.29165297851563 202.33987709960937 164.03307485351561 L 202.54673959960937 164.03307485351561 Q 203.24490053710937 164.03307485351561 203.58105209960937 164.43387094726563 Q 203.9172036621094 164.83466704101562 204.04649272460938 165.41646782226562 Q 204.17578178710937 165.9982686035156 204.16285288085936 166.63178500976562 Q 204.14992397460938 167.26530141601563 204.17578178710937 167.73074204101562 Q 204.17578178710937 167.91174672851562 204.21456850585938 168.42890297851562 Q 204.25335522460938 168.94605922851562 204.30507084960936 169.64422016601563 Q 204.35678647460938 170.34238110351563 204.40850209960936 171.13104438476563 Q 204.46021772460938 171.91970766601563 204.49900444335938 172.61786860351563 Q 204.5377911621094 173.31602954101564 204.57657788085936 173.83318579101564 Q 204.61536459960936 174.35034204101564 204.61536459960936 174.50548891601562 L 204.61536459960936 174.60892016601562 Q 204.64122241210939 174.84164047851561 204.71879584960936 175.38465454101564 Q 204.79636928710937 175.92766860351563 204.8868716308594 176.53532719726562 Q 204.97737397460938 177.14298579101563 205.05494741210939 177.68599985351563 Q 205.13252084960936 178.22901391601562 205.18423647460938 178.43587641601562 Q 205.21009428710937 178.56516547851564 205.27473881835937 178.82374360351562 Q 205.33938334960936 179.08232172851564 205.42988569335938 179.37968657226563 Q 205.52038803710937 179.67705141601562 205.59796147460938 179.93562954101563 Q 205.67553491210938 180.19420766601561 205.72725053710937 180.29763891601561 Q 205.62381928710937 180.89236860351562 205.42988569335938 181.21559125976563 Q 205.23595209960936 181.5388139160156 204.58950678710937 181.5388139160156 Q 204.51193334960936 181.5388139160156 204.35678647460938 181.52588500976563 Q 204.20163959960936 181.51295610351562 204.17578178710937 181.51295610351562 Q 204.09820834960937 181.46124047851563 203.87841694335938 181.25437797851563 Q 203.65862553710937 181.04751547851563 203.63276772460938 180.96994204101563 L 203.21904272460938 179.54776235351562 L 202.44330834960937 173.65218110351563 L 202.44330834960937 173.41946079101564 Q 202.41745053710937 172.95402016601562 202.41745053710937 172.42393500976561 Q 202.41745053710937 171.89384985351563 202.40452163085936 171.3508357910156 Q 202.39159272460938 170.80782172851562 202.33987709960937 170.26480766601563 Q 202.28816147460938 169.72179360351564 202.13301459960937 169.25635297851562 L 202.00372553710937 169.41149985351564 L 200.14196303710938 176.9102654785156 Q 200.11610522460938 177.19470141601562 200.09024741210936 177.51792407226563 Q 200.06438959960937 177.84114672851564 199.96095834960937 178.13851157226563 Q 199.85752709960937 178.43587641601562 199.65066459960937 178.64273891601562 Q 199.44380209960937 178.84960141601562 199.05593491210936 178.87545922851564 Q 198.90078803710938 178.90131704101563 198.71978334960937 178.82374360351562 Q 198.53877866210937 178.74617016601562 198.3577739746094 178.61688110351562 Q 198.17676928710938 178.48759204101563 198.03455131835938 178.31951625976563 Q 197.89233334960937 178.1514404785156 197.86647553710938 177.99629360351562 L 194.58253334960938 172.77301547851562 L 194.03951928710939 171.68698735351563 L 194.03951928710939 173.91075922851562 Q 194.03951928710939 175.48808579101564 194.10416381835938 177.00076782226563 Q 194.16880834960938 178.51344985351562 194.16880834960938 180.09077641601561 Q 194.16880834960938 180.22006547851564 194.16880834960938 180.54328813476562 Q 194.16880834960938 180.86651079101563 194.15587944335937 181.2285201660156 Q 194.14295053710939 181.59052954101563 194.14295053710939 181.91375219726564 Q 194.14295053710939 182.23697485351562 194.14295053710939 182.3662639160156 Q 194.03951928710939 182.6765576660156 193.84558569335937 182.90927797851563 Q 193.65165209960938 183.14199829101562 193.28964272460937 183.14199829101562 Q 192.7983442871094 183.14199829101562 192.52683725585936 182.97392250976563 Q 192.25533022460937 182.80584672851563 192.0743255371094 182.3662639160156 Z M 212.93902749023437 175.92766860351563 Q 212.70630717773437 176.34139360351563 212.40894233398438 176.92319438476562 Q 212.11157749023437 177.50499516601562 211.77542592773437 178.16436938476562 Q 211.43927436523438 178.82374360351562 211.03847827148437 179.48311782226563 Q 210.63768217773438 180.14249204101563 210.21102827148437 180.68550610351562 Q 209.78437436523438 181.2285201660156 209.31893374023437 181.60345844726564 Q 208.8534931152344 181.97839672851563 208.36219467773438 182.0559701660156 Q 208.15533217773438 182.0559701660156 207.89675405273437 182.01718344726564 Q 207.63817592773438 181.97839672851563 207.37959780273437 181.88789438476562 Q 207.12101967773438 181.79739204101563 206.95294389648438 181.62931625976563 Q 206.7848681152344 181.46124047851563 206.7848681152344 181.17680454101563 Q 206.81072592773438 178.53930766601562 207.17273530273437 176.38018032226563 Q 207.53474467773438 174.22105297851562 208.31047905273437 172.57908188476563 Q 209.08621342773438 170.9371107910156 210.30153061523438 169.85108266601563 Q 211.5168478027344 168.76505454101562 213.24932124023437 168.29961391601563 Q 213.30103686523438 168.29961391601563 213.44325483398438 168.28668500976562 Q 213.5854728027344 168.27375610351564 213.63718842773437 168.27375610351564 Q 214.41292280273439 168.24789829101562 214.7620032714844 168.98484594726563 Q 215.11108374023436 169.72179360351564 215.2791595214844 171.31204907226564 Q 215.44723530273438 172.9023045410156 215.51187983398438 175.39758344726562 Q 215.57652436523438 177.89286235351562 215.78338686523438 181.38366704101563 Q 215.86096030273438 181.66810297851563 215.87388920898437 181.87496547851563 Q 215.88681811523438 182.08182797851563 215.88681811523438 182.3662639160156 Q 215.88681811523438 182.75413110351562 215.65409780273438 182.94806469726564 Q 215.42137749023436 183.14199829101562 215.05936811523438 183.14199829101562 Q 214.30949155273439 183.14199829101562 213.9991978027344 182.72827329101563 Q 213.6889040527344 182.31454829101563 213.5854728027344 181.61638735351562 Q 213.5854728027344 181.59052954101563 213.54668608398438 181.20266235351562 Q 213.50789936523438 180.8147951660156 213.44325483398438 180.31056782226563 Q 213.3786103027344 179.80634047851564 213.32689467773437 179.28918422851564 Q 213.2751790527344 178.77202797851564 213.24932124023437 178.43587641601562 L 213.24932124023437 178.33244516601562 Q 213.19760561523438 178.07386704101563 213.18467670898437 177.68599985351563 Q 213.1717478027344 177.29813266601562 213.12003217773437 176.93612329101563 Q 213.0683165527344 176.4965404785156 213.04245874023437 176.05695766601562 Z M 212.37015561523438 170.80782172851562 Q 211.67199467773438 171.32497797851562 210.99969155273436 172.20414360351563 Q 210.32738842773438 173.08330922851562 210.04295249023437 173.91075922851562 Q 209.91366342773438 174.29862641601562 209.75851655273436 174.97092954101564 Q 209.60336967773438 175.64323266601562 209.48700952148437 176.30260688476562 Q 209.37064936523439 176.96198110351563 209.29307592773438 177.51792407226563 Q 209.21550249023437 178.07386704101563 209.21550249023437 178.22901391601562 Q 209.24136030273436 178.22901391601562 209.28014702148437 178.17729829101563 Q 209.31893374023437 178.12558266601562 209.34479155273436 178.09972485351562 Q 210.94797592773438 176.54825610351563 211.60735014648438 174.75113813476563 Q 212.26672436523438 172.95402016601562 212.37015561523438 170.80782172851562 Z M 217.59168779296874 184.09873735351562 Q 217.59168779296874 183.96944829101562 217.56582998046875 183.65915454101562 Q 217.53997216796876 183.34886079101562 217.52704326171875 182.99978032226562 Q 217.51411435546876 182.65069985351562 217.50118544921875 182.35333500976563 Q 217.48825654296874 182.0559701660156 217.48825654296874 181.92668110351562 Q 217.46239873046875 181.20266235351562 217.47532763671876 179.72876704101563 Q 217.48825654296874 178.25487172851564 217.50118544921875 176.48361157226563 Q 217.51411435546876 174.71235141601562 217.53997216796876 172.85058891601562 Q 217.56582998046875 170.98882641601563 217.56582998046875 169.4502865722656 Q 217.56582998046875 167.91174672851562 217.55290107421874 166.90329204101562 Q 217.53997216796876 165.8948373535156 217.48825654296874 165.86897954101562 Q 217.48825654296874 165.61040141601563 217.66926123046875 165.33889438476564 Q 217.85026591796876 165.0673873535156 218.13470185546876 165.11910297851563 Q 218.34156435546876 165.11910297851563 218.61307138671876 165.18374750976562 Q 218.88457841796875 165.24839204101562 219.11729873046875 165.3776811035156 Q 219.35001904296874 165.50697016601563 219.51809482421876 165.70090375976562 Q 219.68617060546876 165.8948373535156 219.68617060546876 166.17927329101562 L 219.68617060546876 173.72975454101564 L 219.78960185546876 173.72975454101564 L 222.76325029296876 170.34238110351563 Q 222.94425498046874 170.1096607910156 223.11233076171874 169.7993670410156 Q 223.28040654296876 169.48907329101561 223.46141123046874 169.20463735351564 Q 223.64241591796875 168.92020141601563 223.87513623046874 168.68748110351564 Q 224.10785654296876 168.45476079101562 224.46986591796875 168.37718735351564 Q 225.01287998046874 168.50647641601563 225.40074716796875 168.73919672851562 Q 225.78861435546875 168.97191704101562 225.78861435546875 169.56664672851562 Q 225.78861435546875 169.61836235351564 225.74982763671875 169.73472250976562 Q 225.71104091796875 169.85108266601563 225.68518310546875 169.9027982910156 Q 225.60760966796875 170.0062295410156 225.36196044921874 170.30359438476563 Q 225.11631123046874 170.60095922851562 224.56036826171874 171.28619125976562 Q 224.00442529296876 171.97142329101564 223.06061513671875 173.09623813476563 Q 222.11680498046874 174.22105297851562 220.64290966796875 176.00524204101563 L 220.87562998046874 176.13453110351563 L 225.89204560546875 176.65168735351563 Q 226.22819716796874 176.7034029785156 226.49970419921874 177.02662563476562 Q 226.77121123046874 177.34984829101563 226.77121123046874 177.63428422851564 Q 226.77121123046874 178.1514404785156 226.39627294921874 178.37123188476562 Q 226.02133466796874 178.59102329101563 225.58175185546875 178.64273891601562 Q 225.55589404296876 178.53930766601562 225.41367607421876 178.52637875976563 Q 225.27145810546875 178.51344985351562 224.70258623046874 178.46173422851564 Q 224.13371435546875 178.41001860351562 222.98304169921875 178.2936584472656 Q 221.83236904296876 178.17729829101563 219.78960185546876 177.86700454101563 L 219.89303310546876 184.02116391601564 Q 219.89303310546876 184.53832016601564 219.71202841796875 184.80982719726563 Q 219.53102373046875 185.08133422851563 218.91043623046875 185.08133422851563 Q 218.44499560546876 185.08133422851563 218.09591513671876 184.7839693847656 Q 217.74683466796876 184.48660454101562 217.59168779296874 184.09873735351562 Z M 238.35376528320313 175.79837954101563 Q 238.30204965820312 176.26382016601562 238.23740512695312 176.52239829101563 Q 238.17276059570312 176.78097641601562 238.01761372070314 176.98783891601562 Q 237.86246684570312 177.19470141601562 237.57803090820312 177.41449282226563 Q 237.2935949707031 177.63428422851564 236.80229653320313 178.03508032226563 Q 236.31099809570313 178.43587641601562 235.58697934570313 179.08232172851564 Q 234.86296059570313 179.72876704101563 233.82864809570313 180.76307954101563 Q 233.41492309570313 181.15094672851563 232.97534028320314 181.56467172851563 Q 232.53575747070312 181.97839672851563 232.05738793945312 182.30161938476562 Q 231.57901840820313 182.62484204101563 231.06186215820313 182.83170454101563 Q 230.54470590820313 183.03856704101563 229.9758340332031 183.03856704101563 Q 228.86394809570314 183.03856704101563 228.34679184570314 182.28869047851563 Q 227.82963559570314 181.5388139160156 227.82963559570314 180.55621704101563 Q 227.82963559570314 179.90977172851564 227.8684223144531 179.47018891601562 Q 227.90720903320312 179.03060610351562 228.06235590820313 178.33244516601562 Q 227.77791997070312 178.07386704101563 227.57105747070312 177.8799334472656 Q 227.36419497070312 177.68599985351563 227.36419497070312 177.34984829101563 Q 227.36419497070312 177.03955454101563 227.50641293945313 176.93612329101563 Q 227.64863090820313 176.83269204101563 227.84256450195312 176.79390532226563 Q 228.03649809570314 176.75511860351563 228.21750278320312 176.7034029785156 Q 228.39850747070312 176.65168735351563 228.47608090820313 176.4965404785156 Q 228.52779653320312 176.34139360351563 228.67001450195312 175.92766860351563 Q 228.81223247070312 175.51394360351563 228.96737934570314 175.06143188476562 Q 229.12252622070312 174.60892016601562 229.26474418945313 174.20812407226563 Q 229.40696215820313 173.80732797851562 229.45867778320311 173.65218110351563 Q 229.63968247070312 173.21259829101564 229.85947387695313 172.76008657226564 Q 230.0792652832031 172.30757485351563 230.37663012695313 171.94556547851562 Q 230.67399497070312 171.58355610351563 231.07479106445314 171.3508357910156 Q 231.47558715820313 171.11811547851562 232.01860122070312 171.11811547851562 Q 232.32889497070312 171.11811547851562 232.78140668945312 171.40255141601563 Q 233.23391840820312 171.68698735351563 233.64764340820312 172.08778344726562 Q 234.06136840820312 172.4885795410156 234.34580434570313 172.92816235351563 Q 234.63024028320314 173.36774516601562 234.63024028320314 173.67803891601562 Q 234.63024028320314 174.06590610351563 234.44923559570313 174.3891287597656 Q 234.26823090820312 174.71235141601562 233.99672387695313 174.98385844726562 Q 233.72521684570313 175.2553654785156 233.41492309570313 175.48808579101564 Q 233.10462934570313 175.72080610351563 232.84605122070312 175.92766860351563 Q 232.82019340820312 175.92766860351563 232.74261997070312 175.9793842285156 Q 232.66504653320314 176.03109985351563 232.61333090820312 176.05695766601562 Q 232.58747309570313 176.0828154785156 232.4969707519531 176.17331782226563 Q 232.40646840820312 176.26382016601562 232.30303715820313 176.36725141601562 Q 232.19960590820313 176.47068266601562 232.10910356445314 176.57411391601562 Q 232.01860122070312 176.67754516601562 231.99274340820313 176.7034029785156 Q 231.91516997070312 176.78097641601562 231.69537856445314 176.94905219726562 Q 231.47558715820313 177.1171279785156 231.2170090332031 177.31106157226563 Q 230.95843090820313 177.50499516601562 230.73863950195312 177.67307094726561 Q 230.51884809570313 177.84114672851564 230.44127465820313 177.89286235351562 L 230.33784340820313 178.09972485351562 Q 230.2861277832031 178.20315610351562 230.24734106445314 178.55223657226563 Q 230.20855434570313 178.90131704101563 230.15683872070312 179.34089985351562 Q 230.10512309570314 179.78048266601562 230.06633637695313 180.23299438476562 Q 230.02754965820313 180.68550610351562 230.02754965820313 180.96994204101563 Q 230.02754965820313 180.99579985351562 230.05340747070312 181.0216576660156 Q 230.10512309570314 181.07337329101563 230.13098090820313 181.07337329101563 Q 230.33784340820313 181.07337329101563 230.51884809570313 180.89236860351562 Q 230.6998527832031 180.7113639160156 230.9067152832031 180.63379047851564 L 235.04396528320314 176.8068342285156 L 236.10413559570313 175.17779204101564 Q 236.23342465820312 174.99678735351563 236.60836293945312 174.77699594726562 Q 236.98330122070314 174.55720454101564 237.37116840820312 174.54427563476563 Q 237.75903559570312 174.53134672851562 238.0564004394531 174.78992485351563 Q 238.35376528320313 175.04850297851561 238.35376528320313 175.79837954101563 Z M 232.66504653320314 173.78147016601562 Q 232.79433559570313 173.67803891601562 232.76847778320314 173.47117641601562 Q 232.74261997070312 173.26431391601562 232.62625981445314 173.1091670410156 Q 232.50989965820312 172.95402016601562 232.32889497070312 172.91523344726562 Q 232.14789028320314 172.87644672851562 231.99274340820313 173.1091670410156 Q 231.91516997070312 173.21259829101564 231.72123637695313 173.52289204101564 Q 231.5273027832031 173.83318579101564 231.33336918945312 174.15640844726562 Q 231.13943559570313 174.47963110351563 231.0101465332031 174.71235141601562 Q 230.88085747070312 174.94507172851561 230.95843090820313 174.89335610351563 Z" transform="matrix(1, 0, 0, 1, 0, 0)" style="fill: url(#gradient-1); stroke-width: 0.5px; white-space: pre;"/>
  <path transform="matrix(1, 0, 0, 1, 0, 0)" style="fill: url(#gradient-1); stroke-width: 0.5px; white-space: pre;"/>
  <path d="M 161.90512084960938 197.665771484375 Q 161.90512084960938 195.673095703125 161.96981811523438 193.706298828125 Q 162.03451538085938 191.739501953125 162.03451538085938 189.720947265625 Q 162.03451538085938 188.556396484375 161.91806030273438 187.391845703125 Q 161.80160522460938 186.227294921875 161.80160522460938 185.062744140625 Q 161.80160522460938 184.700439453125 162.02157592773438 184.441650390625 Q 162.24154663085938 184.182861328125 162.60385131835938 184.182861328125 Q 163.22494506835938 184.182861328125 163.53549194335938 184.441650390625 Q 163.84603881835938 184.700439453125 163.97543334960938 185.088623046875 Q 164.10482788085938 185.476806640625 164.10482788085938 185.968505859375 Q 164.10482788085938 186.460205078125 164.10482788085938 186.926025390625 Q 164.10482788085938 187.029541015625 164.11776733398438 187.443603515625 Q 164.13070678710938 187.857666015625 164.15658569335938 188.33642578125 Q 164.18246459960938 188.815185546875 164.19540405273438 189.229248046875 Q 164.20834350585938 189.643310546875 164.20834350585938 189.746826171875 L 164.20834350585938 190.600830078125 Q 164.20834350585938 192.282958984375 164.15658569335938 193.939208984375 Q 164.10482788085938 195.595458984375 164.10482788085938 197.303466796875 L 164.10482788085938 198.390380859375 Q 164.10482788085938 198.519775390625 164.14364624023438 198.73974609375 Q 164.18246459960938 198.959716796875 164.20834350585938 198.959716796875 L 164.41537475585938 198.959716796875 L 170.54867553710938 196.527099609375 Q 170.75570678710938 196.345947265625 170.91098022460938 196.3330078125 Q 171.06625366210938 196.320068359375 171.27328491210938 196.320068359375 Q 171.40267944335938 196.320068359375 171.60971069335938 196.3330078125 Q 171.81674194335938 196.345947265625 172.01083374023438 196.41064453125 Q 172.20492553710938 196.475341796875 172.34725952148438 196.591796875 Q 172.48959350585938 196.708251953125 172.48959350585938 196.941162109375 Q 172.48959350585938 197.536376953125 171.84262084960938 197.976318359375 Q 171.01449584960938 198.416259765625 170.13461303710938 198.79150390625 Q 169.25473022460938 199.166748046875 168.34896850585938 199.399658203125 L 168.21957397460938 199.503173828125 Q 166.97738647460938 199.839599609375 165.90341186523438 200.486572265625 Q 164.82943725585938 201.133544921875 163.66488647460938 201.677001953125 L 163.43197631835938 201.677001953125 Q 162.73324584960938 201.677001953125 162.39682006835938 201.211181640625 Q 162.06039428710938 200.745361328125 161.95687866210938 200.111328125 Q 161.85336303710938 199.477294921875 161.87924194335938 198.79150390625 Q 161.90512084960938 198.105712890625 161.90512084960938 197.665771484375 Z M 173.21392822265625 197.096435546875 Q 173.23980712890625 196.941162109375 173.21392822265625 196.268310546875 Q 173.18804931640625 195.595458984375 173.20098876953125 194.59912109375 Q 173.21392822265625 193.602783203125 173.25274658203125 192.412353515625 Q 173.29156494140625 191.221923828125 173.43389892578125 190.005615234375 Q 173.57623291015625 188.789306640625 173.84796142578125 187.66357421875 Q 174.11968994140625 186.537841796875 174.55963134765625 185.709716796875 Q 174.71490478515625 185.010986328125 175.31011962890625 184.7392578125 Q 175.90533447265625 184.467529296875 176.99224853515625 184.415771484375 Q 177.69097900390625 184.415771484375 178.18267822265625 184.778076171875 Q 178.67437744140625 185.140380859375 179.02374267578125 185.6708984375 Q 179.37310791015625 186.201416015625 179.63189697265625 186.822509765625 Q 179.89068603515625 187.443603515625 180.09771728515625 187.935302734375 L 180.09771728515625 188.064697265625 Q 180.27886962890625 188.582275390625 180.36944580078125 189.6044921875 Q 180.46002197265625 190.626708984375 180.49884033203125 191.75244140625 Q 180.53765869140625 192.878173828125 180.53765869140625 193.913330078125 Q 180.53765869140625 194.948486328125 180.53765869140625 195.491943359375 Q 180.53765869140625 196.268310546875 180.33062744140625 197.34228515625 Q 180.12359619140625 198.416259765625 179.67071533203125 199.373779296875 Q 179.21783447265625 200.331298828125 178.49322509765625 201.004150390625 Q 177.76861572265625 201.677001953125 176.75933837890625 201.677001953125 Q 175.90533447265625 201.677001953125 175.24542236328125 201.237060546875 Q 174.58551025390625 200.797119140625 174.13262939453125 200.111328125 Q 173.67974853515625 199.425537109375 173.44683837890625 198.623291015625 Q 173.21392822265625 197.821044921875 173.21392822265625 197.096435546875 Z M 175.72418212890625 198.830322265625 Q 175.77593994140625 199.114990234375 176.02178955078125 199.41259765625 Q 176.26763916015625 199.710205078125 176.60406494140625 199.710205078125 L 176.81109619140625 199.710205078125 Q 177.89801025390625 198.726806640625 178.23443603515625 197.44580078125 Q 178.57086181640625 196.164794921875 178.57086181640625 194.741455078125 Q 178.57086181640625 194.405029296875 178.54498291015625 193.706298828125 Q 178.51910400390625 193.007568359375 178.45440673828125 192.140625 Q 178.38970947265625 191.273681640625 178.28619384765625 190.316162109375 Q 178.18267822265625 189.358642578125 178.02740478515625 188.517578125 Q 177.87213134765625 187.676513671875 177.66510009765625 187.055419921875 Q 177.45806884765625 186.434326171875 177.17340087890625 186.201416015625 Q 177.14752197265625 186.227294921875 177.10870361328125 186.304931640625 Q 177.06988525390625 186.382568359375 177.06988525390625 186.408447265625 Q 176.52642822265625 187.081298828125 176.08648681640625 188.245849609375 Q 175.64654541015625 189.410400390625 175.42657470703125 191.001953125 Q 175.20660400390625 192.593505859375 175.24542236328125 194.5732421875 Q 175.28424072265625 196.552978515625 175.72418212890625 198.830322265625 Z M 181.75376892089844 197.096435546875 Q 181.77964782714844 196.941162109375 181.75376892089844 196.268310546875 Q 181.72789001464844 195.595458984375 181.74082946777344 194.59912109375 Q 181.75376892089844 193.602783203125 181.79258728027344 192.412353515625 Q 181.83140563964844 191.221923828125 181.97373962402344 190.005615234375 Q 182.11607360839844 188.789306640625 182.38780212402344 187.66357421875 Q 182.65953063964844 186.537841796875 183.09947204589844 185.709716796875 Q 183.25474548339844 185.010986328125 183.84996032714844 184.7392578125 Q 184.44517517089844 184.467529296875 185.53208923339844 184.415771484375 Q 186.23081970214844 184.415771484375 186.72251892089844 184.778076171875 Q 187.21421813964844 185.140380859375 187.56358337402344 185.6708984375 Q 187.91294860839844 186.201416015625 188.17173767089844 186.822509765625 Q 188.43052673339844 187.443603515625 188.63755798339844 187.935302734375 L 188.63755798339844 188.064697265625 Q 188.81871032714844 188.582275390625 188.90928649902344 189.6044921875 Q 188.99986267089844 190.626708984375 189.03868103027344 191.75244140625 Q 189.07749938964844 192.878173828125 189.07749938964844 193.913330078125 Q 189.07749938964844 194.948486328125 189.07749938964844 195.491943359375 Q 189.07749938964844 196.268310546875 188.87046813964844 197.34228515625 Q 188.66343688964844 198.416259765625 188.21055603027344 199.373779296875 Q 187.75767517089844 200.331298828125 187.03306579589844 201.004150390625 Q 186.30845642089844 201.677001953125 185.29917907714844 201.677001953125 Q 184.44517517089844 201.677001953125 183.78526306152344 201.237060546875 Q 183.12535095214844 200.797119140625 182.67247009277344 200.111328125 Q 182.21958923339844 199.425537109375 181.98667907714844 198.623291015625 Q 181.75376892089844 197.821044921875 181.75376892089844 197.096435546875 Z M 184.26402282714844 198.830322265625 Q 184.31578063964844 199.114990234375 184.56163024902344 199.41259765625 Q 184.80747985839844 199.710205078125 185.14390563964844 199.710205078125 L 185.35093688964844 199.710205078125 Q 186.43785095214844 198.726806640625 186.77427673339844 197.44580078125 Q 187.11070251464844 196.164794921875 187.11070251464844 194.741455078125 Q 187.11070251464844 194.405029296875 187.08482360839844 193.706298828125 Q 187.05894470214844 193.007568359375 186.99424743652344 192.140625 Q 186.92955017089844 191.273681640625 186.82603454589844 190.316162109375 Q 186.72251892089844 189.358642578125 186.56724548339844 188.517578125 Q 186.41197204589844 187.676513671875 186.20494079589844 187.055419921875 Q 185.99790954589844 186.434326171875 185.71324157714844 186.201416015625 Q 185.68736267089844 186.227294921875 185.64854431152344 186.304931640625 Q 185.60972595214844 186.382568359375 185.60972595214844 186.408447265625 Q 185.06626892089844 187.081298828125 184.62632751464844 188.245849609375 Q 184.18638610839844 189.410400390625 183.96641540527344 191.001953125 Q 183.74644470214844 192.593505859375 183.78526306152344 194.5732421875 Q 183.82408142089844 196.552978515625 184.26402282714844 198.830322265625 Z M 195.36587524414062 190.316162109375 Q 195.33999633789062 190.109130859375 195.30117797851562 189.78564453125 Q 195.26235961914062 189.462158203125 195.22354125976562 189.16455078125 Q 195.18472290039062 188.866943359375 195.15884399414062 188.659912109375 Q 195.13296508789062 188.452880859375 195.13296508789062 188.452880859375 L 194.92593383789062 188.452880859375 L 191.97573852539062 189.332763671875 Q 191.84634399414062 189.539794921875 191.54873657226562 189.539794921875 Q 191.25112915039062 189.539794921875 191.09585571289062 189.539794921875 Q 190.73355102539062 189.539794921875 190.35830688476562 189.21630859375 Q 189.98306274414062 188.892822265625 189.98306274414062 188.504638671875 Q 189.98306274414062 188.219970703125 190.17715454101562 187.9482421875 Q 190.37124633789062 187.676513671875 190.65591430664062 187.572998046875 L 194.82241821289062 186.253173828125 Q 194.90005493164062 185.968505859375 195.12002563476562 185.6708984375 Q 195.33999633789062 185.373291015625 195.70230102539062 185.373291015625 Q 196.06460571289062 185.373291015625 196.31045532226562 185.554443359375 Q 196.55630493164062 185.735595703125 196.86685180664062 185.839111328125 Q 197.09976196289062 185.813232421875 197.64321899414062 185.683837890625 Q 198.18667602539062 185.554443359375 198.79483032226562 185.412109375 Q 199.40298461914062 185.269775390625 199.94644165039062 185.140380859375 Q 200.48989868164062 185.010986328125 200.69692993164062 184.959228515625 Q 201.00747680664062 184.907470703125 201.16275024414062 184.829833984375 Q 201.31802368164062 184.752197265625 201.65444946289062 184.752197265625 Q 202.09439086914062 184.752197265625 202.56021118164062 185.010986328125 Q 203.02603149414062 185.269775390625 203.02603149414062 185.787353515625 Q 203.02603149414062 186.123779296875 202.79312133789062 186.36962890625 Q 202.56021118164062 186.615478515625 202.22378540039062 186.693115234375 L 197.30679321289062 187.935302734375 L 197.30679321289062 188.168212890625 Q 197.30679321289062 188.970458984375 197.44912719726562 189.746826171875 Q 197.59146118164062 190.523193359375 197.53970336914062 191.299560546875 L 198.41958618164062 199.296142578125 L 198.41958618164062 199.865478515625 Q 198.41958618164062 200.176025390625 198.40664672851562 200.49951171875 Q 198.39370727539062 200.822998046875 198.30313110351562 201.081787109375 Q 198.21255493164062 201.340576171875 198.00552368164062 201.5087890625 Q 197.79849243164062 201.677001953125 197.38442993164062 201.677001953125 Q 197.07388305664062 201.677001953125 196.72451782226562 201.418212890625 Q 196.37515258789062 201.159423828125 196.34927368164062 200.797119140625 L 195.36587524414062 190.523193359375 Z" transform="matrix(2.07346510887146, 0, 0, 1.4197039604187012, -191.74078369140625, -80.1993179321289)" style="fill: url(#gradient-0); stroke-linecap: round; stroke-linejoin: bevel; stroke-width: 0.286273px; white-space: pre;"/>
</svg>