<?xml version="1.0" encoding="utf-8"?>
<svg viewBox="175.5 56.938 78.281 74.5" xmlns="http://www.w3.org/2000/svg">
  <path d="M 177.6779022216797 61.80528564453125 L 184.29342956542968 61.80528564453125 L 184.2820037841797 76.16749267578125 L 190.7718475341797 76.16749267578125 L 190.7718475341797 78.78399658203125 L 177.6779022216797 78.78399658203125 Z M 192.16212463378906 73.05968017578125 Q 192.16212463378906 72.07706298828126 192.47062072753906 71.26583251953124 Q 192.77911682128905 70.45460205078125 193.32184143066405 69.80904541015624 Q 193.86456604003905 69.16348876953126 194.60724182128905 68.68360595703125 Q 195.34991760253905 68.20372314453125 196.21827697753906 67.88380126953125 Q 197.08663635253907 67.56387939453126 198.03497619628905 67.40391845703125 Q 198.98331604003906 67.24395751953125 199.95450744628906 67.24395751953125 Q 201.23419494628905 67.24395751953125 202.27965393066407 67.50103759765625 Q 203.32511291503906 67.75811767578125 204.14205627441407 68.20372314453125 Q 204.95899963378906 68.64932861328126 205.55885314941406 69.24346923828125 Q 206.15870666503906 69.83760986328124 206.55289611816406 70.50601806640626 Q 206.94708557128905 71.17442626953125 207.13561096191407 71.88282470703125 Q 207.32413635253906 72.59122314453126 207.32413635253906 73.26534423828124 L 198.68624572753907 74.30509033203126 Q 198.93761291503907 75.57335205078125 199.69171447753905 76.27032470703125 Q 200.44581604003906 76.96729736328125 201.80548400878905 76.96729736328125 Q 202.54815979003905 76.96729736328125 203.19371643066407 76.78448486328125 Q 203.83927307128906 76.60167236328125 204.20489807128905 76.33887939453125 L 205.11896057128905 77.93848876953125 Q 204.69620666503906 78.15557861328125 204.19918518066407 78.34981689453124 Q 203.70216369628906 78.54405517578125 203.10231018066406 78.68687744140625 Q 202.50245666503906 78.82969970703125 201.77691955566405 78.91539306640625 Q 201.05138244628907 79.00108642578125 200.18302307128906 79.00108642578125 Q 198.10353088378906 79.00108642578125 196.59532775878907 78.51549072265625 Q 195.08712463378907 78.02989501953125 194.09879455566406 77.21295166015625 Q 193.11046447753907 76.39600830078125 192.63629455566405 75.32198486328124 Q 192.16212463378906 74.24796142578126 192.16212463378906 73.05968017578125 Z M 201.78263244628906 72.09991455078125 Q 201.78263244628906 70.61456298828125 201.41129455566406 69.94044189453125 Q 201.03995666503906 69.26632080078124 200.30870666503907 69.26632080078124 Q 199.93165588378906 69.26632080078124 199.61173400878906 69.44913330078126 Q 199.29181213378905 69.63194580078125 199.06329650878905 70.02042236328126 Q 198.83478088378905 70.40889892578124 198.69767150878906 71.02017822265626 Q 198.56056213378906 71.63145751953125 198.54913635253905 72.49981689453125 Z M 210.10819396972656 69.34630126953125 L 208.82850646972656 69.34630126953125 L 208.82850646972656 67.46104736328125 L 210.10819396972656 67.46104736328125 L 210.10819396972656 63.69053955078125 L 216.31239318847656 63.69053955078125 L 216.31239318847656 67.46104736328125 L 219.29452209472657 67.46104736328125 L 218.12909240722655 69.34630126953125 L 216.31239318847656 69.34630126953125 L 216.31239318847656 74.47647705078126 Q 216.31239318847656 75.64190673828125 216.83226623535157 76.27032470703125 Q 217.35213928222657 76.89874267578125 218.32333068847657 76.89874267578125 L 217.61493225097655 78.46407470703124 Q 217.02079162597656 78.71544189453125 216.35238342285157 78.85826416015625 Q 215.68397521972656 79.00108642578125 214.80419006347657 79.00108642578125 Q 213.57020568847656 79.00108642578125 212.67899475097656 78.68687744140625 Q 211.78778381347655 78.37266845703125 211.21649475097655 77.78995361328126 Q 210.64520568847655 77.20723876953124 210.37669982910157 76.36173095703126 Q 210.10819396972656 75.51622314453125 210.10819396972656 74.45362548828125 Z M 221.56557006835936 75.85899658203125 Q 222.03402709960938 76.11036376953125 222.46820678710938 76.31602783203125 Q 222.9023864746094 76.52169189453124 223.33656616210936 76.66451416015624 Q 223.77074584960937 76.80733642578124 224.21063842773438 76.88731689453125 Q 224.65053100585936 76.96729736328125 225.1304138183594 76.96729736328125 Q 225.88451538085937 76.96729736328125 226.2158630371094 76.78448486328125 Q 226.54721069335938 76.60167236328125 226.54721069335938 76.30460205078126 Q 226.54721069335938 76.12178955078124 226.43866577148438 75.99610595703125 Q 226.3301208496094 75.87042236328125 226.13588256835936 75.77330322265625 Q 225.94164428710937 75.67618408203126 225.67885131835936 75.59049072265626 Q 225.4160583496094 75.50479736328126 225.09613647460938 75.41339111328125 L 224.4448669433594 75.21915283203126 Q 223.48510131835937 74.93350830078126 222.7881286621094 74.55074462890624 Q 222.09115600585938 74.16798095703125 221.6455505371094 73.68809814453125 Q 221.19994506835937 73.20821533203124 220.98285522460938 72.65406494140625 Q 220.76576538085936 72.09991455078125 220.76576538085936 71.47149658203125 Q 220.76576538085936 70.66026611328125 221.1313903808594 69.90045166015625 Q 221.49701538085938 69.14063720703125 222.26254272460938 68.54649658203125 Q 223.02807006835937 67.95235595703124 224.22206420898436 67.59815673828125 Q 225.4160583496094 67.24395751953125 227.06137084960938 67.24395751953125 Q 227.67836303710936 67.24395751953125 228.34677124023438 67.31822509765625 Q 229.0151794433594 67.39249267578126 229.6435974121094 67.50675048828126 Q 230.2720153808594 67.62100830078126 230.82045288085936 67.76383056640626 Q 231.36889038085937 67.90665283203126 231.74594116210938 68.05518798828125 L 230.74047241210937 69.89473876953124 Q 230.48910522460938 69.75762939453125 230.15204467773438 69.64908447265626 Q 229.8149841308594 69.54053955078125 229.46078491210938 69.45484619140625 Q 229.10658569335936 69.36915283203125 228.78095092773438 69.32344970703124 Q 228.45531616210937 69.27774658203126 228.22680053710937 69.27774658203126 Q 227.56410522460936 69.27774658203126 227.27846069335936 69.46055908203125 Q 226.99281616210936 69.64337158203125 226.99281616210936 69.90616455078126 Q 226.99281616210936 70.00899658203124 227.04994506835936 70.12325439453124 Q 227.10707397460936 70.23751220703124 227.27846069335936 70.36319580078126 Q 227.44984741210936 70.48887939453125 227.7583435058594 70.62598876953125 Q 228.06683959960938 70.76309814453126 228.56957397460937 70.91163330078125 L 229.20941772460938 71.10587158203126 Q 230.2720153808594 71.42579345703125 230.97470092773438 71.82569580078125 Q 231.67738647460936 72.22559814453125 232.10585327148436 72.68834228515625 Q 232.53432006835936 73.15108642578124 232.71141967773437 73.66524658203124 Q 232.88851928710938 74.17940673828124 232.88851928710938 74.71641845703125 Q 232.88851928710938 75.53907470703125 232.48861694335938 76.31602783203125 Q 232.08871459960938 77.09298095703124 231.2146423339844 77.68712158203125 Q 230.34057006835937 78.28126220703125 228.9580505371094 78.64117431640625 Q 227.57553100585938 79.00108642578125 225.61029663085938 79.00108642578125 Q 224.76478881835936 79.00108642578125 224.05639038085937 78.93253173828126 Q 223.34799194335938 78.86397705078124 222.71957397460938 78.72686767578125 Q 222.09115600585938 78.58975830078126 221.51415405273437 78.38980712890626 Q 220.93715209960936 78.18985595703126 220.37728881835938 77.93848876953125 Z" transform="matrix(1, 0, 0, 1, 0, 0)" style="fill: rgb(248, 248, 248); white-space: pre;"/>
  <path transform="matrix(1, 0, 0, 1, 0, 0)" style="fill: rgb(245, 255, 203); white-space: pre;"/>
  <path d="M 177.6779022216797 85.20528717041016 L 182.35104675292968 85.20528717041016 L 188.7723358154297 94.09454498291015 L 194.8737030029297 85.20528717041016 L 199.4211639404297 85.20528717041016 L 199.4211639404297 102.18399810791016 L 192.8284881591797 102.18399810791016 L 192.8284881591797 93.51183013916015 L 186.49860534667968 102.40108795166016 L 180.1915740966797 93.51183013916015 L 180.1915740966797 102.18399810791016 L 177.6779022216797 102.18399810791016 Z M 202.44296264648438 98.61915435791016 Q 202.44296264648438 97.79649810791015 202.80858764648437 97.08809967041016 Q 203.17421264648436 96.37970123291015 203.85975952148436 95.85411529541015 Q 204.54530639648436 95.32852935791016 205.51649780273436 95.02574615478515 Q 206.48768920898436 94.72296295166015 207.68739624023436 94.72296295166015 Q 208.88710327148436 94.72296295166015 209.93256225585938 95.00289459228516 Q 210.97802124023437 95.28282623291015 211.68641967773436 95.71700592041016 L 211.68641967773436 95.62559967041015 Q 211.68641967773436 94.82579498291015 211.5093200683594 94.26593170166015 Q 211.33222045898438 93.70606842041016 210.9665954589844 93.35186920166015 Q 210.60097045898436 92.99766998291015 210.03539428710937 92.83770904541015 Q 209.46981811523438 92.67774810791016 208.70429077148438 92.67774810791016 Q 208.00731811523437 92.67774810791016 207.26464233398437 92.79771881103515 Q 206.52196655273437 92.91768951416016 205.89354858398437 93.14620513916016 L 205.05946655273436 91.60372467041016 Q 206.30487670898438 91.08956451416016 207.63598022460937 90.86676177978515 Q 208.9670837402344 90.64395904541016 210.38388061523438 90.64395904541016 Q 212.20057983398436 90.64395904541016 213.60023803710936 90.99244537353516 Q 214.99989624023436 91.34093170166015 215.95394897460938 92.03219146728516 Q 216.9080017089844 92.72345123291015 217.39931030273436 93.76891021728515 Q 217.89061889648437 94.81436920166016 217.89061889648437 96.21974029541016 L 217.89061889648437 102.18399810791016 L 212.09774780273438 102.18399810791016 L 211.7092712402344 101.08712310791016 Q 211.3664978027344 101.34991607666015 210.89804077148438 101.58985748291016 Q 210.42958374023436 101.82979888916016 209.86972045898438 102.01261138916016 Q 209.3098571777344 102.19542388916015 208.6814392089844 102.29825592041016 Q 208.0530212402344 102.40108795166016 207.3674743652344 102.40108795166016 Q 206.24774780273438 102.40108795166016 205.3393981933594 102.10973052978515 Q 204.43104858398436 101.81837310791016 203.79120483398438 101.31563873291016 Q 203.15136108398437 100.81290435791016 202.7971618652344 100.12164459228515 Q 202.44296264648438 99.43038482666016 202.44296264648438 98.61915435791016 Z M 208.84140014648438 98.37921295166015 Q 208.84140014648438 98.99620513916015 209.24130249023438 99.37896881103515 Q 209.64120483398438 99.76173248291016 210.31532592773436 99.76173248291016 Q 210.6809509277344 99.76173248291016 211.03515014648437 99.64176177978516 Q 211.38934936523438 99.52179107666015 211.68641967773436 99.28184967041015 L 211.68641967773436 97.35089263916015 Q 211.11513061523436 97.00811920166015 210.42958374023436 97.00811920166015 Q 209.6526306152344 97.00811920166015 209.24701538085938 97.39088287353516 Q 208.84140014648438 97.77364654541016 208.84140014648438 98.37921295166015 Z M 220.97146606445312 83.32003326416016 L 227.17566528320313 83.32003326416016 L 227.17566528320313 95.62559967041015 L 231.78025512695314 90.86104888916016 L 235.20798950195314 90.86104888916016 L 231.57459106445313 94.55157623291015 L 237.1846496582031 102.18399810791016 L 230.23777465820314 102.17257232666016 L 227.17566528320313 97.78507232666016 L 227.17566528320313 102.18399810791016 L 220.97146606445312 102.18399810791016 Z M 238.07171630859375 96.45968170166016 Q 238.07171630859375 95.47706451416016 238.38021240234374 94.66583404541015 Q 238.68870849609374 93.85460357666015 239.23143310546874 93.20904693603515 Q 239.77415771484374 92.56349029541016 240.51683349609374 92.08360748291015 Q 241.25950927734374 91.60372467041016 242.12786865234375 91.28380279541015 Q 242.99622802734376 90.96388092041016 243.94456787109374 90.80391998291016 Q 244.89290771484374 90.64395904541016 245.86409912109374 90.64395904541016 Q 247.14378662109374 90.64395904541016 248.18924560546876 90.90103912353516 Q 249.23470458984374 91.15811920166016 250.05164794921876 91.60372467041016 Q 250.86859130859375 92.04933013916016 251.46844482421875 92.64347076416016 Q 252.06829833984375 93.23761138916015 252.46248779296874 93.90601959228516 Q 252.85667724609374 94.57442779541016 253.04520263671876 95.28282623291015 Q 253.23372802734374 95.99122467041016 253.23372802734374 96.66534576416015 L 244.59583740234376 97.70509185791016 Q 244.84720458984376 98.97335357666016 245.60130615234374 99.67032623291016 Q 246.35540771484375 100.36729888916015 247.71507568359374 100.36729888916015 Q 248.45775146484374 100.36729888916015 249.10330810546876 100.18448638916016 Q 249.74886474609374 100.00167388916016 250.11448974609374 99.73888092041015 L 251.02855224609374 101.33849029541015 Q 250.60579833984374 101.55558013916016 250.10877685546876 101.74981842041015 Q 249.61175537109375 101.94405670166016 249.01190185546875 102.08687896728516 Q 248.41204833984375 102.22970123291016 247.68651123046874 102.31539459228516 Q 246.96097412109376 102.40108795166016 246.09261474609374 102.40108795166016 Q 244.01312255859375 102.40108795166016 242.50491943359376 101.91549224853516 Q 240.99671630859376 101.42989654541016 240.00838623046874 100.61295318603516 Q 239.02005615234376 99.79600982666015 238.54588623046874 98.72198638916015 Q 238.07171630859375 97.64796295166016 238.07171630859375 96.45968170166016 Z M 247.69222412109374 95.49991607666016 Q 247.69222412109374 94.01456451416016 247.32088623046874 93.34044342041015 Q 246.94954833984374 92.66632232666015 246.21829833984376 92.66632232666015 Q 245.84124755859375 92.66632232666015 245.52132568359374 92.84913482666016 Q 245.20140380859374 93.03194732666016 244.97288818359374 93.42042388916016 Q 244.74437255859374 93.80890045166015 244.60726318359374 94.42017974853516 Q 244.47015380859375 95.03145904541016 244.45872802734374 95.89981842041016 Z" transform="matrix(1, 0, 0, 1, 0, 0)" style="fill: rgb(226, 226, 226); white-space: pre;"/>
  <path transform="matrix(1, 0, 0, 1, 0, 0)" style="fill: rgb(245, 255, 203); white-space: pre;"/>
  <path d="M 177.6779022216797 108.60528869628907 L 184.29342956542968 108.60528869628907 L 184.2820037841797 122.96749572753906 L 190.7718475341797 122.96749572753906 L 190.7718475341797 125.58399963378906 L 177.6779022216797 125.58399963378906 Z M 192.16212463378906 119.92823791503906 Q 192.16212463378906 118.57999572753906 192.71627502441407 117.49454650878906 Q 193.27042541503906 116.40909729003906 194.31588439941407 115.64356994628906 Q 195.36134338378906 114.87804260253907 196.86954650878906 114.46100158691407 Q 198.37774963378905 114.04396057128906 200.29728088378906 114.04396057128906 Q 202.21681213378906 114.04396057128906 203.72501525878906 114.46100158691407 Q 205.23321838378905 114.87804260253907 206.27867736816407 115.64356994628906 Q 207.32413635253906 116.40909729003906 207.87828674316407 117.49454650878906 Q 208.43243713378905 118.57999572753906 208.43243713378905 119.92823791503906 Q 208.43243713378905 121.26505432128906 207.87828674316407 122.35050354003906 Q 207.32413635253906 123.43595275878906 206.27867736816407 124.20148010253907 Q 205.23321838378905 124.96700744628906 203.72501525878906 125.38404846191406 Q 202.21681213378906 125.80108947753907 200.29728088378906 125.80108947753907 Q 198.37774963378905 125.80108947753907 196.86954650878906 125.38404846191406 Q 195.36134338378906 124.96700744628906 194.31588439941407 124.20148010253907 Q 193.27042541503906 123.43595275878906 192.71627502441407 122.35050354003906 Q 192.16212463378906 121.26505432128906 192.16212463378906 119.92823791503906 Z M 200.29728088378906 123.71017150878906 Q 200.72003479003905 123.71017150878906 201.05138244628907 123.53878479003906 Q 201.38273010253906 123.36739807128906 201.59981994628907 122.93893127441406 Q 201.81690979003906 122.51046447753906 201.93116760253906 121.77921447753906 Q 202.04542541503906 121.04796447753907 202.04542541503906 119.92823791503906 Q 202.04542541503906 118.79708557128906 201.93116760253906 118.06583557128906 Q 201.81690979003906 117.33458557128907 201.59981994628907 116.90611877441407 Q 201.38273010253906 116.47765197753907 201.05138244628907 116.30626525878907 Q 200.72003479003905 116.13487854003907 200.29728088378906 116.13487854003907 Q 199.86310119628905 116.13487854003907 199.53746643066407 116.30626525878907 Q 199.21183166503906 116.47765197753907 198.99474182128907 116.90611877441407 Q 198.77765197753905 117.33458557128907 198.66339416503905 118.06583557128906 Q 198.54913635253905 118.79708557128906 198.54913635253905 119.92823791503906 Q 198.54913635253905 121.04796447753907 198.66339416503905 121.77921447753906 Q 198.77765197753905 122.51046447753906 198.99474182128907 122.93893127441406 Q 199.21183166503906 123.36739807128906 199.53746643066407 123.53878479003906 Q 199.86310119628905 123.71017150878906 200.29728088378906 123.71017150878906 Z M 210.14215087890625 119.92823791503906 Q 210.14215087890625 118.57999572753906 210.69630126953126 117.49454650878906 Q 211.25045166015624 116.40909729003906 212.29591064453126 115.64356994628906 Q 213.34136962890625 114.87804260253907 214.84957275390624 114.46100158691407 Q 216.35777587890624 114.04396057128906 218.27730712890624 114.04396057128906 Q 220.19683837890625 114.04396057128906 221.70504150390624 114.46100158691407 Q 223.21324462890624 114.87804260253907 224.25870361328126 115.64356994628906 Q 225.30416259765624 116.40909729003906 225.85831298828126 117.49454650878906 Q 226.41246337890624 118.57999572753906 226.41246337890624 119.92823791503906 Q 226.41246337890624 121.26505432128906 225.85831298828126 122.35050354003906 Q 225.30416259765624 123.43595275878906 224.25870361328126 124.20148010253907 Q 223.21324462890624 124.96700744628906 221.70504150390624 125.38404846191406 Q 220.19683837890625 125.80108947753907 218.27730712890624 125.80108947753907 Q 216.35777587890624 125.80108947753907 214.84957275390624 125.38404846191406 Q 213.34136962890625 124.96700744628906 212.29591064453126 124.20148010253907 Q 211.25045166015624 123.43595275878906 210.69630126953126 122.35050354003906 Q 210.14215087890625 121.26505432128906 210.14215087890625 119.92823791503906 Z M 218.27730712890624 123.71017150878906 Q 218.70006103515624 123.71017150878906 219.03140869140626 123.53878479003906 Q 219.36275634765624 123.36739807128906 219.57984619140626 122.93893127441406 Q 219.79693603515625 122.51046447753906 219.91119384765625 121.77921447753906 Q 220.02545166015625 121.04796447753907 220.02545166015625 119.92823791503906 Q 220.02545166015625 118.79708557128906 219.91119384765625 118.06583557128906 Q 219.79693603515625 117.33458557128907 219.57984619140626 116.90611877441407 Q 219.36275634765624 116.47765197753907 219.03140869140626 116.30626525878907 Q 218.70006103515624 116.13487854003907 218.27730712890624 116.13487854003907 Q 217.84312744140624 116.13487854003907 217.51749267578126 116.30626525878907 Q 217.19185791015624 116.47765197753907 216.97476806640626 116.90611877441407 Q 216.75767822265624 117.33458557128907 216.64342041015624 118.06583557128906 Q 216.52916259765624 118.79708557128906 216.52916259765624 119.92823791503906 Q 216.52916259765624 121.04796447753907 216.64342041015624 121.77921447753906 Q 216.75767822265624 122.51046447753906 216.97476806640626 122.93893127441406 Q 217.19185791015624 123.36739807128906 217.51749267578126 123.53878479003906 Q 217.84312744140624 123.71017150878906 218.27730712890624 123.71017150878906 Z M 229.51610717773437 116.14630432128907 L 228.23641967773438 116.14630432128907 L 228.23641967773438 114.26105041503907 L 229.51610717773437 114.26105041503907 L 229.51610717773437 110.49054260253907 L 235.72030639648438 110.49054260253907 L 235.72030639648438 114.26105041503907 L 238.7024353027344 114.26105041503907 L 237.53700561523436 116.14630432128907 L 235.72030639648438 116.14630432128907 L 235.72030639648438 121.27648010253907 Q 235.72030639648438 122.44190979003906 236.24017944335938 123.07032775878906 Q 236.7600524902344 123.69874572753906 237.7312438964844 123.69874572753906 L 237.02284545898436 125.26407775878906 Q 236.42870483398437 125.51544494628907 235.7602966308594 125.65826721191407 Q 235.09188842773438 125.80108947753907 234.21210327148438 125.80108947753907 Q 232.97811889648438 125.80108947753907 232.08690795898437 125.48688049316407 Q 231.19569702148436 125.17267150878907 230.62440795898436 124.58995666503907 Q 230.05311889648436 124.00724182128906 229.78461303710938 123.16173400878907 Q 229.51610717773437 122.31622619628907 229.51610717773437 121.25362854003906 Z" transform="matrix(1, 0, 0, 1, 0, 0)" style="fill: rgb(248, 248, 248); white-space: pre;"/>
</svg>