<?xml version="1.0" encoding="utf-8"?>
<svg viewBox="175.5 56.938 199.938 27.703" xmlns="http://www.w3.org/2000/svg">
  <path d="M 177.6779022216797 61.80528564453125 L 184.29342956542968 61.80528564453125 L 184.2820037841797 76.16749267578125 L 190.7718475341797 76.16749267578125 L 190.7718475341797 78.78399658203125 L 177.6779022216797 78.78399658203125 Z M 192.16111755371094 73.05968017578125 Q 192.16111755371094 72.07706298828126 192.46961364746093 71.26583251953124 Q 192.77810974121093 70.45460205078125 193.32083435058593 69.80904541015624 Q 193.86355895996093 69.16348876953126 194.60623474121093 68.68360595703125 Q 195.34891052246093 68.20372314453125 196.21726989746094 67.88380126953125 Q 197.08562927246095 67.56387939453126 198.03396911621093 67.40391845703125 Q 198.98230895996093 67.24395751953125 199.95350036621093 67.24395751953125 Q 201.23318786621093 67.24395751953125 202.27864685058594 67.50103759765625 Q 203.32410583496093 67.75811767578125 204.14104919433595 68.20372314453125 Q 204.95799255371094 68.64932861328126 205.55784606933594 69.24346923828125 Q 206.15769958496094 69.83760986328124 206.55188903808593 70.50601806640626 Q 206.94607849121093 71.17442626953125 207.13460388183594 71.88282470703125 Q 207.32312927246093 72.59122314453126 207.32312927246093 73.26534423828124 L 198.68523864746095 74.30509033203126 Q 198.93660583496094 75.57335205078125 199.69070739746093 76.27032470703125 Q 200.44480895996094 76.96729736328125 201.80447692871093 76.96729736328125 Q 202.54715270996093 76.96729736328125 203.19270935058594 76.78448486328125 Q 203.83826599121093 76.60167236328125 204.20389099121093 76.33887939453125 L 205.11795349121093 77.93848876953125 Q 204.69519958496093 78.15557861328125 204.19817810058595 78.34981689453124 Q 203.70115661621094 78.54405517578125 203.10130310058594 78.68687744140625 Q 202.50144958496094 78.82969970703125 201.77591247558593 78.91539306640625 Q 201.05037536621094 79.00108642578125 200.18201599121093 79.00108642578125 Q 198.10252380371094 79.00108642578125 196.59432067871094 78.51549072265625 Q 195.08611755371095 78.02989501953125 194.09778747558593 77.21295166015625 Q 193.10945739746094 76.39600830078125 192.63528747558593 75.32198486328124 Q 192.16111755371094 74.24796142578126 192.16111755371094 73.05968017578125 Z M 201.78162536621093 72.09991455078125 Q 201.78162536621093 70.61456298828125 201.41028747558593 69.94044189453125 Q 201.03894958496093 69.26632080078124 200.30769958496094 69.26632080078124 Q 199.93064880371094 69.26632080078124 199.61072692871093 69.44913330078126 Q 199.29080505371093 69.63194580078125 199.06228942871093 70.02042236328126 Q 198.83377380371093 70.40889892578124 198.69666442871093 71.02017822265626 Q 198.55955505371094 71.63145751953125 198.54812927246093 72.49981689453125 Z M 210.10611877441406 69.34630126953125 L 208.82643127441406 69.34630126953125 L 208.82643127441406 67.46104736328125 L 210.10611877441406 67.46104736328125 L 210.10611877441406 63.69053955078125 L 216.31031799316406 63.69053955078125 L 216.31031799316406 67.46104736328125 L 219.29244689941407 67.46104736328125 L 218.12701721191405 69.34630126953125 L 216.31031799316406 69.34630126953125 L 216.31031799316406 74.47647705078126 Q 216.31031799316406 75.64190673828125 216.83019104003907 76.27032470703125 Q 217.35006408691407 76.89874267578125 218.32125549316407 76.89874267578125 L 217.61285705566405 78.46407470703124 Q 217.01871643066406 78.71544189453125 216.35030822753907 78.85826416015625 Q 215.68190002441406 79.00108642578125 214.80211486816407 79.00108642578125 Q 213.56813049316406 79.00108642578125 212.67691955566406 78.68687744140625 Q 211.78570861816405 78.37266845703125 211.21441955566405 77.78995361328126 Q 210.64313049316405 77.20723876953124 210.37462463378907 76.36173095703126 Q 210.10611877441406 75.51622314453125 210.10611877441406 74.45362548828125 Z M 221.56273193359374 75.85899658203125 Q 222.03118896484375 76.11036376953125 222.46536865234376 76.31602783203125 Q 222.89954833984376 76.52169189453124 223.33372802734374 76.66451416015624 Q 223.76790771484374 76.80733642578124 224.20780029296876 76.88731689453125 Q 224.64769287109374 76.96729736328125 225.12757568359376 76.96729736328125 Q 225.88167724609374 76.96729736328125 226.21302490234376 76.78448486328125 Q 226.54437255859375 76.60167236328125 226.54437255859375 76.30460205078126 Q 226.54437255859375 76.12178955078124 226.43582763671876 75.99610595703125 Q 226.32728271484376 75.87042236328125 226.13304443359374 75.77330322265625 Q 225.93880615234374 75.67618408203126 225.67601318359374 75.59049072265626 Q 225.41322021484376 75.50479736328126 225.09329833984376 75.41339111328125 L 224.44202880859376 75.21915283203126 Q 223.48226318359374 74.93350830078126 222.78529052734376 74.55074462890624 Q 222.08831787109375 74.16798095703125 221.64271240234376 73.68809814453125 Q 221.19710693359374 73.20821533203124 220.98001708984376 72.65406494140625 Q 220.76292724609374 72.09991455078125 220.76292724609374 71.47149658203125 Q 220.76292724609374 70.66026611328125 221.12855224609376 69.90045166015625 Q 221.49417724609376 69.14063720703125 222.25970458984375 68.54649658203125 Q 223.02523193359374 67.95235595703124 224.21922607421874 67.59815673828125 Q 225.41322021484376 67.24395751953125 227.05853271484375 67.24395751953125 Q 227.67552490234374 67.24395751953125 228.34393310546875 67.31822509765625 Q 229.01234130859376 67.39249267578126 229.64075927734376 67.50675048828126 Q 230.26917724609376 67.62100830078126 230.81761474609374 67.76383056640626 Q 231.36605224609374 67.90665283203126 231.74310302734375 68.05518798828125 L 230.73763427734374 69.89473876953124 Q 230.48626708984375 69.75762939453125 230.14920654296876 69.64908447265626 Q 229.81214599609376 69.54053955078125 229.45794677734375 69.45484619140625 Q 229.10374755859374 69.36915283203125 228.77811279296876 69.32344970703124 Q 228.45247802734374 69.27774658203126 228.22396240234374 69.27774658203126 Q 227.56126708984374 69.27774658203126 227.27562255859374 69.46055908203125 Q 226.98997802734374 69.64337158203125 226.98997802734374 69.90616455078126 Q 226.98997802734374 70.00899658203124 227.04710693359374 70.12325439453124 Q 227.10423583984374 70.23751220703124 227.27562255859374 70.36319580078126 Q 227.44700927734374 70.48887939453125 227.75550537109376 70.62598876953125 Q 228.06400146484376 70.76309814453126 228.56673583984374 70.91163330078125 L 229.20657958984376 71.10587158203126 Q 230.26917724609376 71.42579345703125 230.97186279296875 71.82569580078125 Q 231.67454833984374 72.22559814453125 232.10301513671874 72.68834228515625 Q 232.53148193359374 73.15108642578124 232.70858154296874 73.66524658203124 Q 232.88568115234375 74.17940673828124 232.88568115234375 74.71641845703125 Q 232.88568115234375 75.53907470703125 232.48577880859375 76.31602783203125 Q 232.08587646484375 77.09298095703124 231.21180419921876 77.68712158203125 Q 230.33773193359374 78.28126220703125 228.95521240234376 78.64117431640625 Q 227.57269287109375 79.00108642578125 225.60745849609376 79.00108642578125 Q 224.76195068359374 79.00108642578125 224.05355224609374 78.93253173828126 Q 223.34515380859375 78.86397705078124 222.71673583984375 78.72686767578125 Q 222.08831787109375 78.58975830078126 221.51131591796874 78.38980712890626 Q 220.93431396484374 78.18985595703126 220.37445068359375 77.93848876953125 Z" transform="matrix(1, 0, 0, 1, 0, 0)" style="fill: rgb(248, 248, 248); white-space: pre;"/>
  <path d="M 235.85218811035156 61.80528564453125 L 240.52533264160155 61.80528564453125 L 246.94662170410157 70.69454345703124 L 253.04798889160156 61.80528564453125 L 257.59544982910154 61.80528564453125 L 257.59544982910154 78.78399658203125 L 251.00277404785157 78.78399658203125 L 251.00277404785157 70.11182861328125 L 244.67289123535156 79.00108642578125 L 238.36585998535156 70.11182861328125 L 238.36585998535156 78.78399658203125 L 235.85218811035156 78.78399658203125 Z M 260.6155700683594 75.21915283203126 Q 260.6155700683594 74.39649658203125 260.9811950683594 73.68809814453125 Q 261.34682006835936 72.97969970703124 262.03236694335936 72.45411376953125 Q 262.71791381835936 71.92852783203125 263.68910522460936 71.62574462890625 Q 264.66029663085936 71.32296142578124 265.86000366210936 71.32296142578124 Q 267.05971069335936 71.32296142578124 268.10516967773435 71.60289306640625 Q 269.1506286621094 71.88282470703125 269.85902709960936 72.31700439453125 L 269.85902709960936 72.22559814453125 Q 269.85902709960936 71.42579345703125 269.6819274902344 70.86593017578124 Q 269.50482788085935 70.30606689453126 269.1392028808594 69.95186767578124 Q 268.77357788085936 69.59766845703125 268.2080017089844 69.43770751953124 Q 267.6424255371094 69.27774658203126 266.87689819335935 69.27774658203126 Q 266.1799255371094 69.27774658203126 265.4372497558594 69.39771728515625 Q 264.6945739746094 69.51768798828125 264.0661560058594 69.74620361328125 L 263.23207397460936 68.20372314453125 Q 264.47748413085935 67.68956298828125 265.8085876464844 67.46676025390624 Q 267.1396911621094 67.24395751953125 268.5564880371094 67.24395751953125 Q 270.37318725585936 67.24395751953125 271.77284545898436 67.59244384765626 Q 273.17250366210936 67.94093017578125 274.1265563964844 68.63218994140625 Q 275.0806091308594 69.32344970703124 275.57191772460936 70.36890869140625 Q 276.0632263183594 71.41436767578125 276.0632263183594 72.81973876953126 L 276.0632263183594 78.78399658203125 L 270.2703552246094 78.78399658203125 L 269.8818786621094 77.68712158203125 Q 269.5391052246094 77.94991455078124 269.0706481933594 78.18985595703126 Q 268.60219116210936 78.42979736328125 268.0423278808594 78.61260986328125 Q 267.4824645996094 78.79542236328125 266.8540466308594 78.89825439453125 Q 266.2256286621094 79.00108642578125 265.5400817871094 79.00108642578125 Q 264.42035522460935 79.00108642578125 263.5120056152344 78.70972900390625 Q 262.60365600585936 78.41837158203126 261.96381225585935 77.91563720703125 Q 261.3239685058594 77.41290283203125 260.9697692871094 76.72164306640624 Q 260.6155700683594 76.03038330078125 260.6155700683594 75.21915283203126 Z M 267.0140075683594 74.97921142578124 Q 267.0140075683594 75.59620361328125 267.4139099121094 75.97896728515624 Q 267.8138122558594 76.36173095703126 268.48793334960936 76.36173095703126 Q 268.8535583496094 76.36173095703126 269.2077575683594 76.24176025390625 Q 269.56195678710935 76.12178955078124 269.85902709960936 75.88184814453125 L 269.85902709960936 73.95089111328124 Q 269.28773803710936 73.60811767578124 268.60219116210936 73.60811767578124 Q 267.8252380371094 73.60811767578124 267.41962280273435 73.99088134765626 Q 267.0140075683594 74.37364501953125 267.0140075683594 74.97921142578124 Z M 279.1429443359375 59.92003173828125 L 285.3471435546875 59.92003173828125 L 285.3471435546875 72.22559814453125 L 289.9517333984375 67.46104736328125 L 293.3794677734375 67.46104736328125 L 289.7460693359375 71.15157470703124 L 295.3561279296875 78.78399658203125 L 288.4092529296875 78.77257080078125 L 285.3471435546875 74.38507080078125 L 285.3471435546875 78.78399658203125 L 279.1429443359375 78.78399658203125 Z M 296.2420349121094 73.05968017578125 Q 296.2420349121094 72.07706298828126 296.5505310058594 71.26583251953124 Q 296.85902709960936 70.45460205078125 297.40175170898436 69.80904541015624 Q 297.94447631835936 69.16348876953126 298.68715209960936 68.68360595703125 Q 299.42982788085936 68.20372314453125 300.2981872558594 67.88380126953125 Q 301.1665466308594 67.56387939453126 302.11488647460936 67.40391845703125 Q 303.0632263183594 67.24395751953125 304.0344177246094 67.24395751953125 Q 305.31410522460936 67.24395751953125 306.35956420898435 67.50103759765625 Q 307.4050231933594 67.75811767578125 308.2219665527344 68.20372314453125 Q 309.0389099121094 68.64932861328126 309.6387634277344 69.24346923828125 Q 310.2386169433594 69.83760986328124 310.6328063964844 70.50601806640626 Q 311.02699584960936 71.17442626953125 311.21552124023435 71.88282470703125 Q 311.4040466308594 72.59122314453126 311.4040466308594 73.26534423828124 L 302.7661560058594 74.30509033203126 Q 303.01752319335935 75.57335205078125 303.77162475585936 76.27032470703125 Q 304.5257263183594 76.96729736328125 305.88539428710936 76.96729736328125 Q 306.62807006835936 76.96729736328125 307.27362670898435 76.78448486328125 Q 307.9191833496094 76.60167236328125 308.28480834960936 76.33887939453125 L 309.19887084960936 77.93848876953125 Q 308.7761169433594 78.15557861328125 308.2790954589844 78.34981689453124 Q 307.7820739746094 78.54405517578125 307.1822204589844 78.68687744140625 Q 306.5823669433594 78.82969970703125 305.85682983398436 78.91539306640625 Q 305.13129272460935 79.00108642578125 304.2629333496094 79.00108642578125 Q 302.1834411621094 79.00108642578125 300.67523803710935 78.51549072265625 Q 299.1670349121094 78.02989501953125 298.1787048339844 77.21295166015625 Q 297.19037475585935 76.39600830078125 296.71620483398436 75.32198486328124 Q 296.2420349121094 74.24796142578126 296.2420349121094 73.05968017578125 Z M 305.8625427246094 72.09991455078125 Q 305.8625427246094 70.61456298828125 305.4912048339844 69.94044189453125 Q 305.1198669433594 69.26632080078124 304.38861694335935 69.26632080078124 Q 304.0115661621094 69.26632080078124 303.6916442871094 69.44913330078126 Q 303.37172241210936 69.63194580078125 303.14320678710936 70.02042236328126 Q 302.91469116210936 70.40889892578124 302.7775817871094 71.02017822265626 Q 302.6404724121094 71.63145751953125 302.62904663085936 72.49981689453125 Z" transform="matrix(1, 0, 0, 1, 0, 0)" style="fill: rgb(226, 226, 226); white-space: pre;"/>
  <path d="M 314.1070861816406 61.80528564453125 L 320.7226135253906 61.80528564453125 L 320.7111877441406 76.16749267578125 L 327.20103149414064 76.16749267578125 L 327.20103149414064 78.78399658203125 L 314.1070861816406 78.78399658203125 Z M 328.5903015136719 73.12823486328125 Q 328.5903015136719 71.77999267578124 329.1444519042969 70.69454345703124 Q 329.6986022949219 69.60909423828124 330.7440612792969 68.84356689453125 Q 331.7895202636719 68.07803955078126 333.2977233886719 67.66099853515625 Q 334.80592651367186 67.24395751953125 336.7254577636719 67.24395751953125 Q 338.6449890136719 67.24395751953125 340.1531921386719 67.66099853515625 Q 341.66139526367186 68.07803955078126 342.70685424804685 68.84356689453125 Q 343.7523132324219 69.60909423828124 344.30646362304685 70.69454345703124 Q 344.86061401367186 71.77999267578124 344.86061401367186 73.12823486328125 Q 344.86061401367186 74.46505126953124 344.30646362304685 75.55050048828124 Q 343.7523132324219 76.63594970703124 342.70685424804685 77.40147705078125 Q 341.66139526367186 78.16700439453125 340.1531921386719 78.58404541015625 Q 338.6449890136719 79.00108642578125 336.7254577636719 79.00108642578125 Q 334.80592651367186 79.00108642578125 333.2977233886719 78.58404541015625 Q 331.7895202636719 78.16700439453125 330.7440612792969 77.40147705078125 Q 329.6986022949219 76.63594970703124 329.1444519042969 75.55050048828124 Q 328.5903015136719 74.46505126953124 328.5903015136719 73.12823486328125 Z M 336.7254577636719 76.91016845703125 Q 337.14821166992186 76.91016845703125 337.47955932617185 76.73878173828125 Q 337.8109069824219 76.56739501953125 338.0279968261719 76.13892822265625 Q 338.2450866699219 75.71046142578125 338.3593444824219 74.97921142578124 Q 338.4736022949219 74.24796142578126 338.4736022949219 73.12823486328125 Q 338.4736022949219 71.99708251953125 338.3593444824219 71.26583251953124 Q 338.2450866699219 70.53458251953126 338.0279968261719 70.10611572265626 Q 337.8109069824219 69.67764892578126 337.47955932617185 69.50626220703126 Q 337.14821166992186 69.33487548828126 336.7254577636719 69.33487548828126 Q 336.29127807617186 69.33487548828126 335.96564331054685 69.50626220703126 Q 335.6400085449219 69.67764892578126 335.42291870117185 70.10611572265626 Q 335.20582885742186 70.53458251953126 335.09157104492186 71.26583251953124 Q 334.97731323242186 71.99708251953125 334.97731323242186 73.12823486328125 Q 334.97731323242186 74.24796142578126 335.09157104492186 74.97921142578124 Q 335.20582885742186 75.71046142578125 335.42291870117185 76.13892822265625 Q 335.6400085449219 76.56739501953125 335.96564331054685 76.73878173828125 Q 336.29127807617186 76.91016845703125 336.7254577636719 76.91016845703125 Z M 346.56915283203125 73.12823486328125 Q 346.56915283203125 71.77999267578124 347.12330322265626 70.69454345703124 Q 347.6774536132813 69.60909423828124 348.72291259765626 68.84356689453125 Q 349.76837158203125 68.07803955078126 351.2765747070313 67.66099853515625 Q 352.78477783203124 67.24395751953125 354.7043090820313 67.24395751953125 Q 356.62384033203125 67.24395751953125 358.1320434570313 67.66099853515625 Q 359.64024658203124 68.07803955078126 360.6857055664062 68.84356689453125 Q 361.7311645507813 69.60909423828124 362.2853149414062 70.69454345703124 Q 362.83946533203124 71.77999267578124 362.83946533203124 73.12823486328125 Q 362.83946533203124 74.46505126953124 362.2853149414062 75.55050048828124 Q 361.7311645507813 76.63594970703124 360.6857055664062 77.40147705078125 Q 359.64024658203124 78.16700439453125 358.1320434570313 78.58404541015625 Q 356.62384033203125 79.00108642578125 354.7043090820313 79.00108642578125 Q 352.78477783203124 79.00108642578125 351.2765747070313 78.58404541015625 Q 349.76837158203125 78.16700439453125 348.72291259765626 77.40147705078125 Q 347.6774536132813 76.63594970703124 347.12330322265626 75.55050048828124 Q 346.56915283203125 74.46505126953124 346.56915283203125 73.12823486328125 Z M 354.7043090820313 76.91016845703125 Q 355.12706298828124 76.91016845703125 355.4584106445312 76.73878173828125 Q 355.7897583007813 76.56739501953125 356.00684814453126 76.13892822265625 Q 356.22393798828125 75.71046142578125 356.33819580078125 74.97921142578124 Q 356.45245361328125 74.24796142578126 356.45245361328125 73.12823486328125 Q 356.45245361328125 71.99708251953125 356.33819580078125 71.26583251953124 Q 356.22393798828125 70.53458251953126 356.00684814453126 70.10611572265626 Q 355.7897583007813 69.67764892578126 355.4584106445312 69.50626220703126 Q 355.12706298828124 69.33487548828126 354.7043090820313 69.33487548828126 Q 354.27012939453124 69.33487548828126 353.9444946289062 69.50626220703126 Q 353.6188598632813 69.67764892578126 353.4017700195312 70.10611572265626 Q 353.18468017578124 70.53458251953126 353.07042236328124 71.26583251953124 Q 352.95616455078124 71.99708251953125 352.95616455078124 73.12823486328125 Q 352.95616455078124 74.24796142578126 353.07042236328124 74.97921142578124 Q 353.18468017578124 75.71046142578125 353.4017700195312 76.13892822265625 Q 353.6188598632813 76.56739501953125 353.9444946289062 76.73878173828125 Q 354.27012939453124 76.91016845703125 354.7043090820313 76.91016845703125 Z M 365.94194946289065 69.34630126953125 L 364.6622619628906 69.34630126953125 L 364.6622619628906 67.46104736328125 L 365.94194946289065 67.46104736328125 L 365.94194946289065 63.69053955078125 L 372.1461486816406 63.69053955078125 L 372.1461486816406 67.46104736328125 L 375.12827758789064 67.46104736328125 L 373.9628479003906 69.34630126953125 L 372.1461486816406 69.34630126953125 L 372.1461486816406 74.47647705078126 Q 372.1461486816406 75.64190673828125 372.6660217285156 76.27032470703125 Q 373.18589477539064 76.89874267578125 374.15708618164064 76.89874267578125 L 373.4486877441406 78.46407470703124 Q 372.85454711914065 78.71544189453125 372.18613891601564 78.85826416015625 Q 371.5177307128906 79.00108642578125 370.6379455566406 79.00108642578125 Q 369.4039611816406 79.00108642578125 368.51275024414065 78.68687744140625 Q 367.6215393066406 78.37266845703125 367.0502502441406 77.78995361328126 Q 366.4789611816406 77.20723876953124 366.2104553222656 76.36173095703126 Q 365.94194946289065 75.51622314453125 365.94194946289065 74.45362548828125 Z" transform="matrix(1, 0, 0, 1, 0, 0)" style="fill: rgb(248, 248, 248); white-space: pre;"/>
</svg>