<?xml version="1.0" encoding="utf-8"?>
<svg viewBox="131.031 174.719 201.391 33.953" xmlns="http://www.w3.org/2000/svg">
  <path d="M 139.5157981689453 204.0403998779297 Q 139.1647981689453 204.0403998779297 138.83719816894532 204.0403998779297 Q 138.5095981689453 204.0403998779297 138.2287981689453 204.0169998779297 Q 136.56739816894532 203.8999998779297 135.5260981689453 203.54899987792967 Q 134.4847981689453 203.19799987792967 133.91149816894531 202.4842998779297 Q 133.33819816894533 201.7705998779297 133.12759816894533 200.63569987792968 Q 132.91699816894533 199.5007998779297 132.91699816894533 197.8627998779297 Q 132.91699816894533 196.3885998779297 133.09249816894533 194.5984998779297 Q 133.26799816894533 192.80839987792967 133.54879816894532 190.8544998779297 Q 133.82959816894532 188.9005998779297 134.1571981689453 186.9817998779297 Q 134.2039981689453 186.6541998779297 134.4028981689453 186.53719987792968 Q 134.60179816894532 186.4201998779297 134.81239816894532 186.4201998779297 Q 135.1867981689453 186.4201998779297 135.3973981689453 186.64249987792968 Q 135.6079981689453 186.8647998779297 135.5377981689453 187.2157998779297 Q 135.4675981689453 187.7773998779297 135.3271981689453 188.7952998779297 Q 135.1867981689453 189.8131998779297 135.02299816894532 191.0416998779297 Q 134.8591981689453 192.27019987792968 134.70709816894532 193.4752998779297 Q 134.5549981689453 194.6803998779297 134.4379981689453 195.63979987792968 Q 134.32099816894532 196.5991998779297 134.2975981689453 197.06719987792968 Q 134.2975981689453 197.34799987792968 134.28589816894532 197.6053998779297 Q 134.2741981689453 197.8627998779297 134.2741981689453 198.12019987792968 Q 134.2741981689453 199.7815998779297 134.56669816894532 200.7643998779297 Q 134.8591981689453 201.7471998779297 135.68989816894532 202.18009987792968 Q 136.5205981689453 202.6129998779297 138.13519816894532 202.6831998779297 Q 138.3223981689453 202.6831998779297 138.5095981689453 202.69489987792969 Q 138.69679816894532 202.70659987792968 138.90739816894532 202.70659987792968 Q 139.96039816894532 202.70659987792968 141.3643981689453 202.6129998779297 Q 142.7683981689453 202.5193998779297 144.37129816894532 202.3789998779297 Q 145.97419816894532 202.2385998779297 147.58879816894532 202.0981998779297 Q 147.96319816894533 202.0513998779297 148.15039816894532 202.2736998779297 Q 148.3375981689453 202.49599987792968 148.36099816894532 202.72999987792969 Q 148.43119816894531 203.43199987792968 147.72919816894532 203.50219987792968 Q 146.4421981689453 203.64259987792968 144.9796981689453 203.75959987792967 Q 143.5171981689453 203.8765998779297 142.1014981689453 203.95849987792968 Q 140.68579816894533 204.0403998779297 139.5157981689453 204.0403998779297 Z M 160.4047186279297 203.50219987792968 Q 159.8431186279297 203.6659998779297 159.2815186279297 203.74789987792968 Q 158.7199186279297 203.8297998779297 158.1349186279297 203.8297998779297 Q 156.61391862792968 203.8297998779297 155.1982186279297 203.29159987792968 Q 153.78251862792968 202.7533998779297 152.65931862792968 201.7705998779297 Q 151.53611862792968 200.7877998779297 150.88091862792967 199.45399987792968 Q 150.2257186279297 198.12019987792968 150.2257186279297 196.5289998779297 Q 150.2257186279297 194.30599987792968 151.22021862792968 192.58609987792968 Q 152.2147186279297 190.8661998779297 153.9346186279297 189.8833998779297 Q 155.6545186279297 188.9005998779297 157.80731862792967 188.9005998779297 Q 159.16451862792968 188.9005998779297 160.4164186279297 189.4270998779297 Q 161.6683186279297 189.9535998779297 162.6511186279297 190.8895998779297 Q 163.6339186279297 191.82559987792968 164.20721862792968 193.0657998779297 Q 164.7805186279297 194.30599987792968 164.7805186279297 195.70999987792968 Q 164.7805186279297 196.8799998779297 164.0551186279297 197.4766998779297 Q 163.32971862792968 198.0733998779297 162.11291862792967 198.2839998779297 Q 160.8961186279297 198.4945998779297 159.44531862792968 198.4945998779297 Q 158.46251862792968 198.4945998779297 157.2574186279297 198.4243998779297 Q 156.05231862792968 198.3541998779297 154.89401862792968 198.22549987792968 Q 153.73571862792969 198.0967998779297 152.8933186279297 197.97979987792968 Q 152.5657186279297 197.9329998779297 152.4253186279297 197.73409987792968 Q 152.2849186279297 197.5351998779297 152.2849186279297 197.3011998779297 Q 152.2849186279297 196.9735998779297 152.5072186279297 196.75129987792968 Q 152.72951862792968 196.5289998779297 153.1039186279297 196.57579987792968 Q 153.5251186279297 196.6693998779297 154.41431862792967 196.7746998779297 Q 155.3035186279297 196.8799998779297 156.36821862792968 196.96189987792968 Q 157.4329186279297 197.0437998779297 158.4040186279297 197.0905998779297 Q 159.37511862792968 197.13739987792968 159.9835186279297 197.13739987792968 Q 161.71511862792968 197.0905998779297 162.59261862792968 196.7044998779297 Q 163.47011862792968 196.3183998779297 163.47011862792968 195.42919987792968 Q 163.47011862792968 194.4697998779297 162.97871862792968 193.5571998779297 Q 162.48731862792968 192.6445998779297 161.65661862792967 191.9074998779297 Q 160.8259186279297 191.1703998779297 159.83141862792968 190.73749987792968 Q 158.8369186279297 190.3045998779297 157.80731862792967 190.3045998779297 Q 156.4969186279297 190.2577998779297 155.35031862792968 190.7608998779297 Q 154.20371862792967 191.26399987792968 153.3496186279297 192.14149987792968 Q 152.4955186279297 193.01899987792967 152.0158186279297 194.1772998779297 Q 151.53611862792968 195.3355998779297 151.53611862792968 196.5991998779297 Q 151.53611862792968 197.8159998779297 152.1211186279297 198.8806998779297 Q 152.7061186279297 199.94539987792967 153.6889186279297 200.74099987792968 Q 154.6717186279297 201.5365998779297 155.8651186279297 201.9811998779297 Q 157.0585186279297 202.42579987792968 158.2753186279297 202.42579987792968 Q 159.09431862792968 202.42579987792968 159.93671862792968 202.1683998779297 Q 160.00691862792968 202.14499987792968 160.14731862792968 202.14499987792968 Q 160.42811862792968 202.14499987792968 160.6504186279297 202.3438998779297 Q 160.8727186279297 202.5427998779297 160.8727186279297 202.87039987792969 Q 160.8727186279297 203.05759987792968 160.7674186279297 203.2447998779297 Q 160.6621186279297 203.43199987792968 160.4047186279297 203.50219987792968 Z M 174.6019609375 203.71279987792968 Q 172.6597609375 203.36179987792968 171.3727609375 202.0279998779297 Q 170.0857609375 200.6941998779297 169.6645609375 198.7051998779297 Q 169.5475609375 198.1435998779297 169.4890609375 197.5468998779297 Q 169.4305609375 196.9501998779297 169.4305609375 196.34179987792967 Q 169.4305609375 195.3355998779297 169.5592609375 194.3176998779297 Q 169.6879609375 193.29979987792967 169.8751609375 192.3637998779297 L 167.1139609375 192.3637998779297 Q 166.7395609375 192.3637998779297 166.5757609375 192.14149987792968 Q 166.4119609375 191.91919987792969 166.4119609375 191.6617998779297 Q 166.4119609375 191.3575998779297 166.6108609375 191.15869987792968 Q 166.8097609375 190.9597998779297 167.1139609375 190.9597998779297 L 170.2261609375 190.9597998779297 Q 170.3197609375 190.5853998779297 170.5303609375 189.9067998779297 Q 170.7409609375 189.22819987792968 170.9749609375 188.5495998779297 Q 171.2089609375 187.87099987792968 171.3493609375 187.4965998779297 Q 171.5365609375 187.0753998779297 171.9811609375 187.0753998779297 Q 172.3321609375 187.0753998779297 172.5310609375 187.2859998779297 Q 172.7299609375 187.4965998779297 172.7299609375 187.7539998779297 Q 172.7299609375 187.8943998779297 172.6597609375 188.0347998779297 Q 172.5193609375 188.43259987792968 172.3204609375 188.99419987792967 Q 172.1215609375 189.5557998779297 171.9460609375 190.0822998779297 Q 171.7705609375 190.6087998779297 171.6769609375 190.9597998779297 L 178.1353609375 190.9597998779297 Q 178.5097609375 190.9597998779297 178.67356093749999 191.19379987792968 Q 178.8373609375 191.4277998779297 178.8373609375 191.6617998779297 Q 178.8373609375 191.91919987792969 178.6618609375 192.14149987792968 Q 178.4863609375 192.3637998779297 178.1353609375 192.3637998779297 L 171.3259609375 192.3637998779297 Q 171.1153609375 193.29979987792967 170.9866609375 194.3527998779297 Q 170.8579609375 195.4057998779297 170.8579609375 196.36519987792968 Q 170.8579609375 196.78639987792968 170.8813609375 197.1841998779297 Q 170.9047609375 197.5819998779297 170.9749609375 197.9329998779297 Q 171.3025609375 199.68799987792968 172.2853609375 200.8930998779297 Q 173.2681609375 202.0981998779297 174.9997609375 202.3789998779297 Q 175.2337609375 202.4023998779297 175.4911609375 202.4140998779297 Q 175.7485609375 202.42579987792968 175.9825609375 202.42579987792968 Q 176.7079609375 202.42579987792968 177.4333609375 202.3321998779297 Q 178.1587609375 202.2385998779297 178.67356093749999 202.0279998779297 Q 178.7671609375 202.00459987792968 178.8373609375 201.9928998779297 Q 178.9075609375 201.9811998779297 178.9777609375 201.9811998779297 Q 179.6095609375 201.9811998779297 179.6095609375 202.7533998779297 Q 179.6095609375 203.12779987792968 179.1181609375 203.36179987792968 Q 177.7609609375 203.85319987792968 176.0761609375 203.85319987792968 Q 175.2805609375 203.85319987792968 174.6019609375 203.71279987792968 Z M 188.9871403564453 204.0403998779297 Q 188.1213403564453 204.0403998779297 187.2087403564453 203.8765998779297 Q 186.2961403564453 203.71279987792968 185.3835403564453 203.4553998779297 Q 184.91554035644532 203.3149998779297 184.91554035644532 202.87039987792969 Q 184.91554035644532 202.14499987792968 185.5239403564453 202.14499987792968 Q 185.6643403564453 202.14499987792968 185.75794035644532 202.1683998779297 Q 186.90454035644532 202.4725998779297 187.5948403564453 202.6246998779297 Q 188.2851403564453 202.77679987792968 188.87014035644532 202.77679987792968 Q 189.59554035644533 202.77679987792968 190.2507403564453 202.5544998779297 Q 190.9059403564453 202.3321998779297 191.3388403564453 201.9460998779297 Q 191.77174035644532 201.5599998779297 191.77174035644532 201.0451998779297 Q 191.77174035644532 200.5069998779297 191.2569403564453 200.21449987792968 Q 190.7421403564453 199.9219998779297 189.87634035644533 199.7464998779297 Q 189.01054035644532 199.5709998779297 187.92244035644532 199.44229987792968 Q 186.83434035644532 199.31359987792968 185.68774035644532 199.1497998779297 Q 183.4179403564453 198.75199987792968 182.21284035644533 197.6872998779297 Q 181.0077403564453 196.6225998779297 181.0077403564453 194.4229998779297 Q 181.0077403564453 193.04239987792968 181.62784035644532 191.96599987792968 Q 182.24794035644533 190.8895998779297 183.30094035644532 190.1524998779297 Q 184.35394035644532 189.4153998779297 185.6994403564453 189.02929987792967 Q 187.04494035644532 188.64319987792967 188.4957403564453 188.64319987792967 Q 189.78274035644532 188.64319987792967 191.0229403564453 188.9707998779297 Q 192.26314035644532 189.29839987792968 193.24594035644532 189.9769998779297 Q 193.5735403564453 190.21099987792968 193.5735403564453 190.49179987792968 Q 193.5735403564453 190.70239987792968 193.4331403564453 190.91299987792968 Q 193.31614035644532 191.0767998779297 193.1640403564453 191.1352998779297 Q 193.0119403564453 191.19379987792968 192.8715403564453 191.19379987792968 Q 192.68434035644532 191.19379987792968 192.4971403564453 191.0767998779297 Q 191.70154035644532 190.5385998779297 190.6719403564453 190.31629987792968 Q 189.64234035644532 190.0939998779297 188.5659403564453 190.0939998779297 Q 186.88114035644531 190.0939998779297 185.4537403564453 190.5853998779297 Q 184.0263403564453 191.0767998779297 183.17224035644531 192.0478998779297 Q 182.31814035644533 193.01899987792967 182.31814035644533 194.4229998779297 Q 182.31814035644533 196.01419987792968 183.2190403564453 196.7746998779297 Q 184.1199403564453 197.5351998779297 185.89834035644532 197.83939987792968 Q 187.18534035644532 198.04999987792968 188.4606403564453 198.2020998779297 Q 189.73594035644533 198.3541998779297 190.78894035644532 198.6349998779297 Q 191.84194035644532 198.9157998779297 192.4854403564453 199.4656998779297 Q 193.1289403564453 200.01559987792967 193.1289403564453 201.02179987792968 Q 193.1289403564453 202.00459987792968 192.5673403564453 202.6831998779297 Q 192.0057403564453 203.36179987792968 191.0580403564453 203.7010998779297 Q 190.1103403564453 204.0403998779297 188.9871403564453 204.0403998779297 Z" transform="matrix(1, 0, 0, 1, 0, 0)" style="fill: rgb(145, 226, 168); line-height: 37.4415px; white-space: pre;"/>
  <path d="M 212.9665737548828 203.54899987792967 Q 212.80277375488282 203.54899987792967 212.73257375488282 203.50219987792968 Q 212.24117375488282 203.3149998779297 212.24117375488282 202.87039987792969 Q 212.24117375488282 202.8235998779297 212.2528737548828 202.7533998779297 Q 212.2645737548828 202.6831998779297 212.2879737548828 202.6129998779297 Q 212.9665737548828 200.60059987792968 213.4111737548828 198.4477998779297 Q 213.85577375488282 196.29499987792968 213.85577375488282 194.37619987792968 Q 213.85577375488282 194.16559987792968 213.85577375488282 193.95499987792968 Q 213.85577375488282 193.74439987792968 213.8323737548828 193.5571998779297 Q 213.7621737548828 192.2233998779297 213.3526737548828 191.1001998779297 Q 212.94317375488282 189.9769998779297 212.2294737548828 189.2398998779297 Q 211.51577375488282 188.50279987792968 210.48617375488283 188.38579987792968 Q 209.55017375488282 188.29219987792968 208.7662737548828 188.73679987792968 Q 207.98237375488281 189.1813998779297 207.45587375488282 189.9886998779297 Q 206.92937375488282 190.7959998779297 206.71877375488282 191.82559987792968 Q 206.64857375488282 192.1531998779297 206.4496737548828 192.31699987792967 Q 206.2507737548828 192.48079987792968 206.0401737548828 192.45739987792967 Q 205.7827737548828 192.45739987792967 205.5838737548828 192.24679987792967 Q 205.38497375488282 192.03619987792968 205.3381737548828 191.7319998779297 Q 205.0807737548828 190.6087998779297 204.50747375488282 189.7078998779297 Q 203.9341737548828 188.80699987792968 203.15027375488282 188.28049987792969 Q 202.3663737548828 187.7539998779297 201.4069737548828 187.7539998779297 Q 200.28377375488282 187.7539998779297 199.4998737548828 188.52619987792968 Q 198.7159737548828 189.29839987792968 198.2713737548828 190.5034998779297 Q 197.82677375488282 191.7085998779297 197.68637375488282 192.9955998779297 Q 197.6395737548828 193.39339987792968 197.61617375488282 193.8028998779297 Q 197.5927737548828 194.2123998779297 197.5927737548828 194.65699987792968 Q 197.5927737548828 196.50559987792968 197.9788737548828 198.5647998779297 Q 198.3649737548828 200.6239998779297 198.94997375488282 202.63639987792968 Q 198.9733737548828 202.70659987792968 198.98507375488282 202.76509987792969 Q 198.9967737548828 202.8235998779297 198.9967737548828 202.87039987792969 Q 198.9967737548828 203.12779987792968 198.8329737548828 203.29159987792968 Q 198.66917375488282 203.4553998779297 198.4819737548828 203.50219987792968 Q 198.4351737548828 203.5255998779297 198.3649737548828 203.5255998779297 Q 198.2947737548828 203.5255998779297 198.24797375488282 203.5255998779297 Q 197.8033737548828 203.5255998779297 197.61617375488282 203.0341998779297 Q 196.96097375488282 200.95159987792968 196.5514737548828 198.7402998779297 Q 196.14197375488283 196.5289998779297 196.14197375488283 194.4931998779297 Q 196.14197375488283 193.9783998779297 196.17707375488283 193.4869998779297 Q 196.21217375488283 192.9955998779297 196.25897375488282 192.55099987792968 Q 196.42277375488283 191.05339987792968 196.99607375488281 189.7078998779297 Q 197.5693737548828 188.36239987792968 198.5170737548828 187.44979987792968 Q 199.4647737548828 186.53719987792968 200.70497375488281 186.3733998779297 Q 201.1027737548828 186.3031998779297 201.50057375488282 186.3031998779297 Q 203.0215737548828 186.3031998779297 204.27347375488282 187.1923998779297 Q 205.52537375488282 188.08159987792968 206.1805737548828 189.4621998779297 Q 206.78897375488282 188.17519987792969 207.8887737548828 187.48489987792968 Q 208.98857375488282 186.7945998779297 210.2053737548828 186.7945998779297 Q 211.39877375488282 186.7945998779297 212.5102737548828 187.48489987792968 Q 213.6217737548828 188.17519987792969 214.38227375488282 189.61429987792968 Q 215.14277375488282 191.05339987792968 215.25977375488281 193.3465998779297 Q 215.28317375488282 193.5571998779297 215.28317375488282 193.77949987792968 Q 215.28317375488282 194.0017998779297 215.28317375488282 194.23579987792968 Q 215.28317375488282 196.3183998779297 214.8151737548828 198.6583998779297 Q 214.34717375488282 200.9983998779297 213.5983737548828 203.08099987792968 Q 213.5281737548828 203.3149998779297 213.3409737548828 203.43199987792968 Q 213.15377375488282 203.54899987792967 212.9665737548828 203.54899987792967 Z M 226.0848418701172 203.92339987792968 Q 225.89764187011718 203.9467998779297 225.69874187011717 203.9467998779297 Q 225.4998418701172 203.9467998779297 225.31264187011718 203.9467998779297 Q 223.2300418701172 203.9467998779297 221.59204187011719 203.0692998779297 Q 219.95404187011718 202.1917998779297 219.0180418701172 200.6473998779297 Q 218.0820418701172 199.10299987792968 218.0820418701172 197.1139998779297 Q 218.0820418701172 195.2419998779297 218.8191418701172 193.6624998779297 Q 219.5562418701172 192.0829998779297 220.9134418701172 191.0299998779297 Q 222.27064187011717 189.9769998779297 224.11924187011718 189.6961998779297 Q 224.3766418701172 189.64939987792968 224.68084187011718 189.6259998779297 Q 224.9850418701172 189.6025998779297 225.2892418701172 189.6025998779297 Q 226.5528418701172 189.6025998779297 227.9217418701172 189.9418998779297 Q 229.29064187011718 190.28119987792968 230.2266418701172 190.8895998779297 Q 230.34364187011718 190.63219987792968 230.6010418701172 190.5736998779297 Q 230.8584418701172 190.5151998779297 231.0222418701172 190.56199987792968 Q 231.2796418701172 190.5853998779297 231.4200418701172 190.7959998779297 Q 231.5604418701172 191.0065998779297 231.5604418701172 191.2873998779297 Q 231.53704187011718 191.82559987792968 231.5253418701172 192.34039987792968 Q 231.5136418701172 192.8551998779297 231.5136418701172 193.3699998779297 Q 231.5136418701172 195.99079987792967 231.8997418701172 198.0265998779297 Q 232.2858418701172 200.0623998779297 233.3622418701172 201.58339987792968 Q 233.5026418701172 201.79399987792968 233.5026418701172 202.00459987792968 Q 233.5026418701172 202.28539987792968 233.28034187011718 202.4725998779297 Q 233.0580418701172 202.6597998779297 232.80064187011718 202.6597998779297 Q 232.44964187011718 202.6597998779297 232.2156418701172 202.35559987792968 Q 231.9816418701172 202.0279998779297 231.7593418701172 201.6301998779297 Q 231.53704187011718 201.23239987792968 231.39664187011718 200.9281998779297 Q 230.4372418701172 202.2619998779297 229.05664187011718 202.9990998779297 Q 227.6760418701172 203.7361998779297 226.0848418701172 203.92339987792968 Z M 225.61684187011718 202.56619987792968 Q 227.2080418701172 202.56619987792968 228.5535418701172 201.6769998779297 Q 229.89904187011717 200.7877998779297 230.7414418701172 199.24339987792968 Q 230.3904418701172 197.9329998779297 230.2266418701172 196.20139987792967 Q 230.06284187011718 194.4697998779297 230.0862418701172 192.59779987792967 Q 229.61824187011717 192.0829998779297 228.84604187011718 191.7319998779297 Q 228.07384187011718 191.3809998779297 227.16124187011718 191.19379987792968 Q 226.24864187011718 191.0065998779297 225.3594418701172 191.0065998779297 Q 224.7744418701172 191.0065998779297 224.25964187011718 191.0767998779297 Q 223.7448418701172 191.1469998779297 223.3002418701172 191.33419987792968 Q 221.52184187011719 191.98939987792969 220.48054187011718 193.5220998779297 Q 219.4392418701172 195.0547998779297 219.4392418701172 197.0203998779297 Q 219.4392418701172 198.75199987792968 220.26994187011718 199.9921998779297 Q 221.1006418701172 201.23239987792968 222.50464187011718 201.89929987792968 Q 223.90864187011718 202.56619987792968 225.61684187011718 202.56619987792968 Z M 237.8013626953125 204.0169998779297 Q 237.2631626953125 204.0169998779297 237.1227626953125 203.43199987792968 Q 236.7015626953125 200.53039987792968 236.5026626953125 197.2894998779297 Q 236.3037626953125 194.0485998779297 236.3037626953125 190.8661998779297 Q 236.3037626953125 188.94739987792968 236.3739626953125 187.16899987792968 Q 236.3739626953125 186.7945998779297 236.6196626953125 186.64249987792968 Q 236.8653626953125 186.4903998779297 237.0993626953125 186.4903998779297 Q 237.4035626953125 186.5137998779297 237.5907626953125 186.71269987792968 Q 237.7779626953125 186.9115998779297 237.7779626953125 187.23919987792968 Q 237.7545626953125 187.87099987792968 237.7311626953125 189.05269987792968 Q 237.7077626953125 190.2343998779297 237.7077626953125 191.54479987792968 Q 237.7077626953125 192.62119987792968 237.7194626953125 193.67419987792968 Q 237.7311626953125 194.72719987792968 237.7662626953125 195.53449987792968 Q 237.8013626953125 196.34179987792967 237.8247626953125 196.7395998779297 Q 238.4097626953125 195.9673998779297 239.5446626953125 195.2068998779297 Q 240.6795626953125 194.44639987792968 242.0484626953125 193.7677998779297 Q 243.4173626953125 193.08919987792967 244.7628626953125 192.56269987792967 Q 246.1083626953125 192.03619987792968 247.1379626953125 191.7085998779297 Q 247.2783626953125 191.6617998779297 247.3485626953125 191.6617998779297 Q 247.6293626953125 191.6617998779297 247.8633626953125 191.88409987792969 Q 248.0973626953125 192.10639987792968 248.0973626953125 192.41059987792968 Q 248.0973626953125 192.59779987792967 247.9686626953125 192.7849998779297 Q 247.8399626953125 192.97219987792968 247.5825626953125 193.04239987792968 Q 245.4999626953125 193.8379998779297 243.7566626953125 194.55169987792968 Q 242.0133626953125 195.2653998779297 240.7497626953125 196.02589987792967 Q 239.4861626953125 196.78639987792968 238.8543626953125 197.7223998779297 Q 239.5095626953125 198.4243998779297 240.5976626953125 199.05619987792969 Q 241.6857626953125 199.68799987792968 242.9844626953125 200.2378998779297 Q 244.2831626953125 200.7877998779297 245.6169626953125 201.2557998779297 Q 246.9507626953125 201.72379987792968 248.0973626953125 202.0981998779297 Q 248.5887626953125 202.3087998779297 248.5887626953125 202.7533998779297 Q 248.5887626953125 202.84699987792968 248.5419626953125 202.98739987792968 Q 248.3547626953125 203.47879987792967 247.9335626953125 203.47879987792967 Q 247.8633626953125 203.47879987792967 247.6761626953125 203.43199987792968 Q 247.5825626953125 203.3851998779297 246.7986626953125 203.11609987792968 Q 246.0147626953125 202.84699987792968 244.8330626953125 202.4140998779297 Q 243.6513626953125 201.9811998779297 242.3526626953125 201.4312998779297 Q 241.0539626953125 200.88139987792968 239.8839626953125 200.22619987792967 Q 238.7139626953125 199.5709998779297 237.9885626953125 198.89239987792968 Q 238.1055626953125 200.01559987792967 238.1757626953125 200.77609987792968 Q 238.2459626953125 201.5365998779297 238.3278626953125 202.10989987792968 Q 238.4097626953125 202.6831998779297 238.5033626953125 203.22139987792968 Q 238.5501626953125 203.61919987792967 238.3161626953125 203.81809987792968 Q 238.0821626953125 204.0169998779297 237.8013626953125 204.0169998779297 Z M 260.3998358154297 203.50219987792968 Q 259.8382358154297 203.6659998779297 259.2766358154297 203.74789987792968 Q 258.7150358154297 203.8297998779297 258.13003581542966 203.8297998779297 Q 256.6090358154297 203.8297998779297 255.1933358154297 203.29159987792968 Q 253.77763581542968 202.7533998779297 252.65443581542968 201.7705998779297 Q 251.53123581542968 200.7877998779297 250.87603581542967 199.45399987792968 Q 250.2208358154297 198.12019987792968 250.2208358154297 196.5289998779297 Q 250.2208358154297 194.30599987792968 251.21533581542968 192.58609987792968 Q 252.2098358154297 190.8661998779297 253.9297358154297 189.8833998779297 Q 255.6496358154297 188.9005998779297 257.8024358154297 188.9005998779297 Q 259.1596358154297 188.9005998779297 260.4115358154297 189.4270998779297 Q 261.6634358154297 189.9535998779297 262.6462358154297 190.8895998779297 Q 263.6290358154297 191.82559987792968 264.2023358154297 193.0657998779297 Q 264.77563581542967 194.30599987792968 264.77563581542967 195.70999987792968 Q 264.77563581542967 196.8799998779297 264.0502358154297 197.4766998779297 Q 263.3248358154297 198.0733998779297 262.1080358154297 198.2839998779297 Q 260.8912358154297 198.4945998779297 259.4404358154297 198.4945998779297 Q 258.4576358154297 198.4945998779297 257.25253581542967 198.4243998779297 Q 256.0474358154297 198.3541998779297 254.88913581542968 198.22549987792968 Q 253.73083581542969 198.0967998779297 252.8884358154297 197.97979987792968 Q 252.5608358154297 197.9329998779297 252.4204358154297 197.73409987792968 Q 252.2800358154297 197.5351998779297 252.2800358154297 197.3011998779297 Q 252.2800358154297 196.9735998779297 252.5023358154297 196.75129987792968 Q 252.72463581542968 196.5289998779297 253.0990358154297 196.57579987792968 Q 253.5202358154297 196.6693998779297 254.40943581542967 196.7746998779297 Q 255.2986358154297 196.8799998779297 256.3633358154297 196.96189987792968 Q 257.42803581542967 197.0437998779297 258.3991358154297 197.0905998779297 Q 259.3702358154297 197.13739987792968 259.9786358154297 197.13739987792968 Q 261.7102358154297 197.0905998779297 262.5877358154297 196.7044998779297 Q 263.4652358154297 196.3183998779297 263.4652358154297 195.42919987792968 Q 263.4652358154297 194.4697998779297 262.9738358154297 193.5571998779297 Q 262.4824358154297 192.6445998779297 261.6517358154297 191.9074998779297 Q 260.8210358154297 191.1703998779297 259.8265358154297 190.73749987792968 Q 258.83203581542966 190.3045998779297 257.8024358154297 190.3045998779297 Q 256.4920358154297 190.2577998779297 255.34543581542968 190.7608998779297 Q 254.19883581542967 191.26399987792968 253.3447358154297 192.14149987792968 Q 252.4906358154297 193.01899987792967 252.0109358154297 194.1772998779297 Q 251.53123581542968 195.3355998779297 251.53123581542968 196.5991998779297 Q 251.53123581542968 197.8159998779297 252.1162358154297 198.8806998779297 Q 252.7012358154297 199.94539987792967 253.6840358154297 200.74099987792968 Q 254.6668358154297 201.5365998779297 255.8602358154297 201.9811998779297 Q 257.0536358154297 202.42579987792968 258.27043581542966 202.42579987792968 Q 259.0894358154297 202.42579987792968 259.9318358154297 202.1683998779297 Q 260.0020358154297 202.14499987792968 260.1424358154297 202.14499987792968 Q 260.4232358154297 202.14499987792968 260.6455358154297 202.3438998779297 Q 260.8678358154297 202.5427998779297 260.8678358154297 202.87039987792969 Q 260.8678358154297 203.05759987792968 260.7625358154297 203.2447998779297 Q 260.6572358154297 203.43199987792968 260.3998358154297 203.50219987792968 Z" transform="matrix(1, 0, 0, 1, 0, 0)" style="fill: rgb(242, 252, 255); line-height: 37.4415px; white-space: pre;"/>
  <path d="M 274.175878125 204.0403998779297 Q 273.824878125 204.0403998779297 273.497278125 204.0403998779297 Q 273.169678125 204.0403998779297 272.888878125 204.0169998779297 Q 271.227478125 203.8999998779297 270.186178125 203.54899987792967 Q 269.144878125 203.19799987792967 268.571578125 202.4842998779297 Q 267.998278125 201.7705998779297 267.787678125 200.63569987792968 Q 267.577078125 199.5007998779297 267.577078125 197.8627998779297 Q 267.577078125 196.3885998779297 267.752578125 194.5984998779297 Q 267.928078125 192.80839987792967 268.208878125 190.8544998779297 Q 268.489678125 188.9005998779297 268.817278125 186.9817998779297 Q 268.864078125 186.6541998779297 269.062978125 186.53719987792968 Q 269.261878125 186.4201998779297 269.472478125 186.4201998779297 Q 269.846878125 186.4201998779297 270.057478125 186.64249987792968 Q 270.268078125 186.8647998779297 270.197878125 187.2157998779297 Q 270.127678125 187.7773998779297 269.987278125 188.7952998779297 Q 269.846878125 189.8131998779297 269.683078125 191.0416998779297 Q 269.519278125 192.27019987792968 269.367178125 193.4752998779297 Q 269.215078125 194.6803998779297 269.098078125 195.63979987792968 Q 268.981078125 196.5991998779297 268.957678125 197.06719987792968 Q 268.957678125 197.34799987792968 268.945978125 197.6053998779297 Q 268.934278125 197.8627998779297 268.934278125 198.12019987792968 Q 268.934278125 199.7815998779297 269.226778125 200.7643998779297 Q 269.519278125 201.7471998779297 270.349978125 202.18009987792968 Q 271.180678125 202.6129998779297 272.795278125 202.6831998779297 Q 272.982478125 202.6831998779297 273.169678125 202.69489987792969 Q 273.356878125 202.70659987792968 273.567478125 202.70659987792968 Q 274.620478125 202.70659987792968 276.024478125 202.6129998779297 Q 277.428478125 202.5193998779297 279.031378125 202.3789998779297 Q 280.634278125 202.2385998779297 282.248878125 202.0981998779297 Q 282.623278125 202.0513998779297 282.810478125 202.2736998779297 Q 282.997678125 202.49599987792968 283.021078125 202.72999987792969 Q 283.091278125 203.43199987792968 282.389278125 203.50219987792968 Q 281.102278125 203.64259987792968 279.639778125 203.75959987792967 Q 278.177278125 203.8765998779297 276.761578125 203.95849987792968 Q 275.345878125 204.0403998779297 274.175878125 204.0403998779297 Z M 292.3503985839844 204.06379987792968 Q 290.0805985839844 204.06379987792968 288.40749858398436 203.12779987792968 Q 286.7343985839844 202.1917998779297 285.81009858398437 200.5420998779297 Q 284.88579858398435 198.89239987792968 284.88579858398435 196.71619987792968 Q 284.88579858398435 194.4697998779297 285.79839858398435 192.8200998779297 Q 286.71099858398435 191.1703998779297 288.3840985839844 190.2577998779297 Q 290.05719858398436 189.3451998779297 292.3503985839844 189.3451998779297 Q 294.69039858398435 189.3451998779297 296.3634985839844 190.24609987792968 Q 298.03659858398436 191.1469998779297 298.9257985839844 192.79669987792968 Q 299.8149985839844 194.44639987792968 299.8149985839844 196.71619987792968 Q 299.8149985839844 198.9391998779297 298.9023985839844 200.60059987792968 Q 297.9897985839844 202.2619998779297 296.31669858398436 203.16289987792968 Q 294.6435985839844 204.06379987792968 292.3503985839844 204.06379987792968 Z M 292.3503985839844 202.5895998779297 Q 295.22859858398436 202.5895998779297 296.7846985839844 201.02179987792968 Q 298.3407985839844 199.45399987792968 298.3407985839844 196.71619987792968 Q 298.3407985839844 193.8613998779297 296.7261985839844 192.34039987792968 Q 295.11159858398435 190.8193998779297 292.3503985839844 190.8193998779297 Q 289.5891985839844 190.8193998779297 287.9745985839844 192.38719987792967 Q 286.35999858398435 193.95499987792968 286.35999858398435 196.71619987792968 Q 286.35999858398435 198.54139987792968 287.13219858398435 199.8517998779297 Q 287.9043985839844 201.16219987792968 289.2615985839844 201.8758998779297 Q 290.61879858398436 202.5895998779297 292.3503985839844 202.5895998779297 Z M 309.1448932128906 204.06379987792968 Q 306.87509321289065 204.06379987792968 305.2019932128906 203.12779987792968 Q 303.52889321289064 202.1917998779297 302.6045932128906 200.5420998779297 Q 301.6802932128906 198.89239987792968 301.6802932128906 196.71619987792968 Q 301.6802932128906 194.4697998779297 302.5928932128906 192.8200998779297 Q 303.5054932128906 191.1703998779297 305.17859321289063 190.2577998779297 Q 306.8516932128906 189.3451998779297 309.1448932128906 189.3451998779297 Q 311.4848932128906 189.3451998779297 313.15799321289063 190.24609987792968 Q 314.8310932128906 191.1469998779297 315.7202932128906 192.79669987792968 Q 316.60949321289064 194.44639987792968 316.60949321289064 196.71619987792968 Q 316.60949321289064 198.9391998779297 315.69689321289064 200.60059987792968 Q 314.78429321289065 202.2619998779297 313.1111932128906 203.16289987792968 Q 311.43809321289064 204.06379987792968 309.1448932128906 204.06379987792968 Z M 309.1448932128906 202.5895998779297 Q 312.0230932128906 202.5895998779297 313.57919321289063 201.02179987792968 Q 315.13529321289064 199.45399987792968 315.13529321289064 196.71619987792968 Q 315.13529321289064 193.8613998779297 313.52069321289065 192.34039987792968 Q 311.9060932128906 190.8193998779297 309.1448932128906 190.8193998779297 Q 306.38369321289065 190.8193998779297 304.76909321289065 192.38719987792967 Q 303.1544932128906 193.95499987792968 303.1544932128906 196.71619987792968 Q 303.1544932128906 198.54139987792968 303.9266932128906 199.8517998779297 Q 304.69889321289065 201.16219987792968 306.05609321289063 201.8758998779297 Q 307.4132932128906 202.5895998779297 309.1448932128906 202.5895998779297 Z M 326.430818359375 203.71279987792968 Q 324.488618359375 203.36179987792968 323.201618359375 202.0279998779297 Q 321.914618359375 200.6941998779297 321.493418359375 198.7051998779297 Q 321.376418359375 198.1435998779297 321.317918359375 197.5468998779297 Q 321.259418359375 196.9501998779297 321.259418359375 196.34179987792967 Q 321.259418359375 195.3355998779297 321.388118359375 194.3176998779297 Q 321.516818359375 193.29979987792967 321.704018359375 192.3637998779297 L 318.942818359375 192.3637998779297 Q 318.568418359375 192.3637998779297 318.404618359375 192.14149987792968 Q 318.240818359375 191.91919987792969 318.240818359375 191.6617998779297 Q 318.240818359375 191.3575998779297 318.439718359375 191.15869987792968 Q 318.638618359375 190.9597998779297 318.942818359375 190.9597998779297 L 322.055018359375 190.9597998779297 Q 322.148618359375 190.5853998779297 322.359218359375 189.9067998779297 Q 322.569818359375 189.22819987792968 322.803818359375 188.5495998779297 Q 323.037818359375 187.87099987792968 323.178218359375 187.4965998779297 Q 323.365418359375 187.0753998779297 323.810018359375 187.0753998779297 Q 324.161018359375 187.0753998779297 324.359918359375 187.2859998779297 Q 324.558818359375 187.4965998779297 324.558818359375 187.7539998779297 Q 324.558818359375 187.8943998779297 324.488618359375 188.0347998779297 Q 324.348218359375 188.43259987792968 324.149318359375 188.99419987792967 Q 323.950418359375 189.5557998779297 323.774918359375 190.0822998779297 Q 323.599418359375 190.6087998779297 323.505818359375 190.9597998779297 L 329.964218359375 190.9597998779297 Q 330.338618359375 190.9597998779297 330.502418359375 191.19379987792968 Q 330.666218359375 191.4277998779297 330.666218359375 191.6617998779297 Q 330.666218359375 191.91919987792969 330.490718359375 192.14149987792968 Q 330.315218359375 192.3637998779297 329.964218359375 192.3637998779297 L 323.154818359375 192.3637998779297 Q 322.944218359375 193.29979987792967 322.815518359375 194.3527998779297 Q 322.686818359375 195.4057998779297 322.686818359375 196.36519987792968 Q 322.686818359375 196.78639987792968 322.710218359375 197.1841998779297 Q 322.733618359375 197.5819998779297 322.803818359375 197.9329998779297 Q 323.131418359375 199.68799987792968 324.114218359375 200.8930998779297 Q 325.097018359375 202.0981998779297 326.828618359375 202.3789998779297 Q 327.062618359375 202.4023998779297 327.320018359375 202.4140998779297 Q 327.577418359375 202.42579987792968 327.811418359375 202.42579987792968 Q 328.536818359375 202.42579987792968 329.262218359375 202.3321998779297 Q 329.987618359375 202.2385998779297 330.502418359375 202.0279998779297 Q 330.596018359375 202.00459987792968 330.666218359375 201.9928998779297 Q 330.736418359375 201.9811998779297 330.806618359375 201.9811998779297 Q 331.438418359375 201.9811998779297 331.438418359375 202.7533998779297 Q 331.438418359375 203.12779987792968 330.947018359375 203.36179987792968 Q 329.589818359375 203.85319987792968 327.905018359375 203.85319987792968 Q 327.109418359375 203.85319987792968 326.430818359375 203.71279987792968 Z" transform="matrix(1, 0, 0, 1, 0, 0)" style="fill: rgb(206, 156, 168); line-height: 37.4415px; white-space: pre;"/>
</svg>